<svg width="56" height="56" viewBox="0 0 56 56" fill="none" xmlns="http://www.w3.org/2000/svg">
<path fill-rule="evenodd" clip-rule="evenodd" d="M28 3.77503C14.6209 3.77503 3.77503 14.6209 3.77503 28C3.77503 41.3791 14.6209 52.225 28 52.225C41.3791 52.225 52.225 41.3791 52.225 28C52.225 14.6209 41.3791 3.77503 28 3.77503ZM0.5 28C0.5 12.8122 12.8122 0.5 28 0.5C43.1878 0.5 55.5 12.8122 55.5 28C55.5 43.1878 43.1878 55.5 28 55.5C12.8122 55.5 0.5 43.1878 0.5 28Z" fill="#EC631B"/>
<path fill-rule="evenodd" clip-rule="evenodd" d="M43.5 16.2608L27.333 42.5L14.5 24.3121L17.1651 22.3785L27.1486 36.5278L40.7208 14.5L43.5 16.2608Z" fill="#EC631B"/>
</svg>
