<svg width="55" height="55" viewBox="0 0 55 55" fill="none" xmlns="http://www.w3.org/2000/svg">
<path d="M27.0833 16.2501L16.25 27.0834L27.0833 37.9167L30.875 34.1251L26.5416 29.7917L37.9166 29.7917L37.9166 24.3751L26.5416 24.3751L30.875 20.0417L27.0833 16.2501ZM27.0833 8.0602e-05C30.8298 8.09295e-05 34.3507 0.71147 37.6458 2.13425C40.9409 3.55703 43.8073 5.48626 46.2448 7.92195C48.6823 10.3595 50.6115 13.2258 52.0325 16.5209C53.4534 19.8161 54.1648 23.3369 54.1666 27.0834C54.1666 30.8299 53.4552 34.3508 52.0325 37.6459C50.6097 40.9411 48.6804 43.8074 46.2448 46.2449C43.8073 48.6824 40.9409 50.6116 37.6458 52.0326C34.3507 53.4536 30.8298 54.1649 27.0833 54.1667C23.3368 54.1667 19.8159 53.4554 16.5208 52.0326C13.2257 50.6098 10.3593 48.6806 7.92183 46.2449C5.48433 43.8074 3.5542 40.941 2.13142 37.6459C0.708645 34.3508 -0.00184262 30.8299 -3.67329e-05 27.0834C-3.64054e-05 23.3369 0.711353 19.8161 2.13413 16.5209C3.55691 13.2258 5.48614 10.3595 7.92184 7.92195C10.3593 5.48445 13.2257 3.55432 16.5208 2.13154C19.8159 0.708762 23.3368 -0.00172528 27.0833 8.0602e-05ZM27.0833 5.41675C21.0347 5.41675 15.9114 7.51571 11.7135 11.7136C7.51559 15.9115 5.41663 21.0348 5.41663 27.0834C5.41663 33.132 7.51559 38.2553 11.7135 42.4532C15.9114 46.6511 21.0347 48.7501 27.0833 48.7501C33.1319 48.7501 38.2552 46.6511 42.4531 42.4532C46.651 38.2553 48.75 33.132 48.75 27.0834C48.75 21.0348 46.651 15.9115 42.4531 11.7136C38.2552 7.51571 33.1319 5.41675 27.0833 5.41675Z" fill="white"/>
</svg>
