<svg width="66" height="66" viewBox="0 0 66 66" fill="none" xmlns="http://www.w3.org/2000/svg">
<path d="M33.1063 44.2184L43.9396 33.385L33.1063 22.5517L29.3146 26.3434L33.6479 30.6767H22.2729V36.0934H33.6479L29.3146 40.4267L33.1063 44.2184ZM33.1063 60.4684C29.3597 60.4684 25.8389 59.757 22.5438 58.3342C19.2486 56.9114 16.3823 54.9822 13.9448 52.5465C11.5073 50.109 9.57806 47.2427 8.15709 43.9475C6.73611 40.6524 6.02472 37.1316 6.02292 33.385C6.02292 29.6385 6.73431 26.1177 8.15709 22.8225C9.57986 19.5274 11.5091 16.6611 13.9448 14.2236C16.3823 11.7861 19.2486 9.85684 22.5438 8.43586C25.8389 7.01489 29.3597 6.3035 33.1063 6.3017C36.8528 6.3017 40.3736 7.01309 43.6687 8.43586C46.9639 9.85864 49.8302 11.7879 52.2677 14.2236C54.7052 16.6611 56.6353 19.5274 58.0581 22.8225C59.4809 26.1177 60.1914 29.6385 60.1896 33.385C60.1896 37.1316 59.4782 40.6524 58.0554 43.9475C56.6326 47.2427 54.7034 50.109 52.2677 52.5465C49.8302 54.984 46.9639 56.9141 43.6687 58.3369C40.3736 59.7597 36.8528 60.4702 33.1063 60.4684ZM33.1063 55.0517C39.1549 55.0517 44.2781 52.9527 48.476 48.7548C52.674 44.5569 54.7729 39.4336 54.7729 33.385C54.7729 27.3364 52.674 22.2132 48.476 18.0152C44.2781 13.8173 39.1549 11.7184 33.1063 11.7184C27.0576 11.7184 21.9344 13.8173 17.7365 18.0152C13.5385 22.2132 11.4396 27.3364 11.4396 33.385C11.4396 39.4336 13.5385 44.5569 17.7365 48.7548C21.9344 52.9527 27.0576 55.0517 33.1063 55.0517Z" fill="white"/>
</svg>
