<svg width="37" height="37" viewBox="0 0 37 37" fill="none" xmlns="http://www.w3.org/2000/svg">
<circle cx="18.433" cy="18.433" r="18.433" transform="matrix(-1 0 0 1 36.8662 0)" fill="#9F9ECF"/>
<path d="M21.3918 22.7736L21.392 22.7738C21.6822 23.0641 21.6822 23.5347 21.392 23.825L21.0384 23.4715L21.392 23.825C21.1017 24.1153 20.631 24.1153 20.3407 23.825L20.6849 23.4809L20.3407 23.825L15.4741 18.9584C15.1838 18.6681 15.1838 18.1974 15.4741 17.9071L20.3407 13.0405C20.631 12.7502 21.1017 12.7502 21.392 13.0405C21.6822 13.3308 21.6822 13.8014 21.392 14.0917L17.0488 18.4349L21.3918 22.7736Z" fill="#121F28" stroke="#121F28"/>
</svg>
