<svg width="26" height="21" viewBox="0 0 26 21" fill="none" xmlns="http://www.w3.org/2000/svg">
<path fill-rule="evenodd" clip-rule="evenodd" d="M12.7519 1.5C9.94754 1.5 7.72553 1.5 6.6331 1.62289C6.34076 1.62849 5.70245 1.7555 4.41109 4.7001C4.24724 4.92318 4.00824 5.06316 3.9054 5.06316C3.69911 5.06316 3.54911 5.00511 3.41856 4.87456C3.30363 4.75933 3.14685 4.69479 2.98388 4.69479H2.61551C2.11718 4.69479 1.64508 4.85747 1.38251 5.12033C1.2997 5.20255 1.24253 5.30717 1.21718 5.42151C1.02828 6.27466 1.4441 6.91473 1.9109 7.14813C1.9884 7.19853 2.12426 7.41365 2.12426 7.52063C2.12426 7.85953 2.11925 8.01071 1.99194 8.20815C0.655199 9.96925 0.835847 17.4168 1.55844 19.1254C1.65481 19.3518 1.8773 19.5 2.12426 19.5H3.59832C3.93752 19.5 4.21276 19.2248 4.21276 18.8856C4.21659 18.8573 4.22927 18.8151 4.24105 18.7653C4.28113 18.6012 4.33565 18.3763 4.33565 18.0869C4.33565 17.924 4.57671 17.7799 4.76561 17.7799H12.6906H20.6155C20.7004 17.7799 20.9571 17.7799 21.0573 18.2066C21.1233 18.5894 21.2538 18.923 21.4557 19.2265C21.57 19.3966 21.7616 19.5 21.967 19.5H23.4411C23.6945 19.5 23.9211 19.3453 24.0134 19.1104C24.7407 17.2588 24.9299 9.92063 23.5542 8.1834C23.5401 8.16483 23.5245 8.14715 23.5071 8.13065C23.4411 8.05255 23.4411 7.69332 23.4411 7.52063C23.4411 7.37505 23.6079 7.20914 23.7287 7.10688C24.0263 6.92652 24.3505 6.54165 24.4433 6.09725C24.5049 5.8058 24.4575 5.52318 24.3107 5.28625C24.1551 4.91523 23.663 4.69479 22.9498 4.69479C22.4258 4.69479 22.1683 4.86159 22.0525 5.07053C21.9325 5.14303 21.7692 5.18605 21.5983 5.18605C21.2108 5.18605 21.1645 5.02456 21.1448 4.95589C21.1357 4.92495 21.1247 4.89489 21.1112 4.86601C20.1903 2.87947 19.6327 2.2447 19.394 1.97358C19.3905 1.96945 19.3863 1.96444 19.3825 1.96061C19.292 1.78084 19.1146 1.65059 18.9019 1.62672C17.7626 1.5 15.4404 1.5 12.7519 1.5Z" stroke="white" stroke-width="1.2"/>
<path fill-rule="evenodd" clip-rule="evenodd" d="M5.38443 7.35542C5.38443 7.35542 6.26962 4.58587 7.26469 3.1731C7.31246 3.10473 7.38424 3.06495 7.46431 3.06053C8.91081 2.97624 16.5928 2.97624 18.0393 3.06053C18.1194 3.06495 18.1912 3.10473 18.2392 3.1731C19.234 4.58587 20.1192 7.35542 20.1192 7.35542C20.1192 7.35542 16.3753 7.06072 12.752 7.06072C9.12866 7.06072 5.38443 7.35542 5.38443 7.35542Z" stroke="white" stroke-width="1.2" stroke-linecap="round" stroke-linejoin="round"/>
</svg>
