<svg id="Car_-_white" data-name="Car - white" xmlns="http://www.w3.org/2000/svg" width="24" height="24" viewBox="0 0 24 24">
  <circle id="Ellipse_1539" data-name="Ellipse 1539" cx="12" cy="12" r="12" fill="#547b83" opacity="0"/>
  <g id="Car" transform="translate(1 -1)">
    <path id="Path_4731" data-name="Path 4731" d="M15.473,16.2h-.015a45.259,45.259,0,0,0-4.638.211.412.412,0,0,0-.371.4V18.18a.7.7,0,0,0,.471.653s.294.115.648.227a4.886,4.886,0,0,0,.84.2c.7.079,2.89.084,3.046.084h.015c.105,0,1.138,0,2.013-.028.245-.007.478-.016.675-.028.141-.008.263-.017.358-.028A8.062,8.062,0,0,0,20,18.833a.7.7,0,0,0,.471-.653V16.814a.408.408,0,0,0-.371-.4A44.812,44.812,0,0,0,15.473,16.2Zm0,.491c.572,0,1.1.008,1.582.022l-4.376,2.08,0,.008c-.083-.006-.156-.012-.215-.018a7.887,7.887,0,0,1-1.383-.408.2.2,0,0,1-.135-.192V16.893C11.721,16.814,13.269,16.691,15.473,16.691Zm-1.749,2.151,4.392-2.087c.826.042,1.453.1,1.86.138v1.292a.2.2,0,0,1-.11.176l-.025.012-.02.008a7.445,7.445,0,0,1-1.362.4c-.536.059-2.119.079-2.985.079h-.015C15,18.862,14.331,18.857,13.724,18.843Z" transform="translate(-4.476 -5.305)" fill="#f6f8f9" fill-rule="evenodd"/>
    <path id="Path_4732" data-name="Path 4732" d="M30.691,16.955l-.036-.46,2.035-.148-.008-.46.518-.055L33.12,17.26l-.518.055.043-.507Z" transform="translate(-14.047 -5.131)" fill="#f6f8f9"/>
    <path id="Path_4733" data-name="Path 4733" d="M7.055,16.494l-.036.46-1.955-.147.043.507-.518-.055-.078-1.429.518.055-.008.46Z" transform="translate(-1.663 -5.131)" fill="#f6f8f9"/>
    <path id="Path_4734" data-name="Path 4734" d="M11.138,5c1.923,0,4.012.231,4.012.231l.008-.009.02-.015a.385.385,0,0,1,.1-.042,1.6,1.6,0,0,1,.438-.047c.566,0,1.613,1.184,2,1.842l1.137,1.9,1.227,1.086A3.618,3.618,0,0,1,21,11.951v6.293a1.508,1.508,0,0,1-1.523,1.493H17.885a.822.822,0,0,1-.812-.683l-.2-1.646-.851-.359H6.249l-.851.359-.2,1.646a.822.822,0,0,1-.812.683H2.8a1.508,1.508,0,0,1-1.523-1.493c0-2.147,0-5.89,0-6.293a3.633,3.633,0,0,1,.912-2.009L3.419,8.856s.446-.742,1.132-1.9c.391-.658,1.438-1.842,2-1.842a1.382,1.382,0,0,1,.541.1.048.048,0,0,0,.017,0h.038C7.4,5.2,9.334,5,11.128,5Zm3.952.717c-.02,0-2.079-.226-3.952-.226a39.281,39.281,0,0,0-3.932.226l-.025,0H7.135a.6.6,0,0,1-.16-.02,1.019,1.019,0,0,1-.13-.044l-.027-.011-.052-.02a.43.43,0,0,0-.206-.018,4.5,4.5,0,0,0-1.568,1.6l-1.137,1.9-.04.064-.055.049L2.532,10.305a3.238,3.238,0,0,0-.746,1.646l0,6.293a1,1,0,0,0,.3.707,1.015,1.015,0,0,0,.722.295H4.385a.325.325,0,0,0,.32-.27l.2-1.626.035-.28.261-.1.852-.359.095-.039h9.968l.095.039.852.359.266.113.035.28.2,1.646a.269.269,0,0,0,.026.074.31.31,0,0,0,.052.071.337.337,0,0,0,.1.071.327.327,0,0,0,.136.03h1.588a1.013,1.013,0,0,0,1.022-1V11.956a3.229,3.229,0,0,0-.756-1.66L18.511,9.22l-.055-.049-.04-.064s-.441-.742-1.132-1.9a4.464,4.464,0,0,0-1.578-1.6h-.06l-.034.014-.067.025c-.042.015-.095.031-.153.045-.026.006-.054.012-.083.017l-.044.006a.8.8,0,0,1-.116.007C15.09,5.722,15.09,5.717,15.09,5.717Z" transform="translate(-0.13)" fill="#f6f8f9" fill-rule="evenodd"/>
    <path id="Path_4735" data-name="Path 4735" d="M35.735,10.158s-.291-.015-.306.221c0,.063,0,.149,0,.245,0,.125.01.265.019.383a1.431,1.431,0,0,0,.034.262l.009.021a.607.607,0,0,0,.087.148.311.311,0,0,0,.215.112c.23.015.982.01,1.117-.01a.536.536,0,0,0,.366-.3,1.124,1.124,0,0,0-.01-.589.677.677,0,0,0-.456-.359A2.888,2.888,0,0,0,35.735,10.158Z" transform="translate(-16.307 -2.442)" fill="#f6f8f9"/>
    <path id="Path_4736" data-name="Path 4736" d="M2.878,10.379a.209.209,0,0,0-.125-.185.421.421,0,0,0-.181-.036,2.907,2.907,0,0,0-1.072.133.678.678,0,0,0-.456.359A.869.869,0,0,0,1,10.991a1,1,0,0,0,.033.247.388.388,0,0,0,.085.134.5.5,0,0,0,.281.165c.1.014.505.023.814.02l.176,0c.049,0,.09,0,.122-.007a.372.372,0,0,0,.3-.258l.01-.022A4.353,4.353,0,0,0,2.878,10.379Z" transform="translate(0 -2.442)" fill="#f6f8f9"/>
  </g>
</svg>
