<svg width="300" height="52" viewBox="0 0 300 52" fill="none" xmlns="http://www.w3.org/2000/svg">
<g clip-path="url(#clip0_74_345)">
<path d="M113.055 36.09C113.085 36.28 113.345 36.46 113.595 36.55C113.685 36.58 113.735 36.64 113.635 36.84C112.915 38.32 112.255 39.17 111.355 40.45C110.525 41.64 109.595 42.56 108.455 43.45C106.745 44.8 104.375 46.28 102.415 45.29C101.545 44.86 101.165 43.69 101.185 42.75C101.225 40.09 102.465 37.37 104.735 34.69C107.515 31.42 110.585 29.72 112.605 30.65C114.685 31.6 114.025 33.91 113.095 35.73C113.025 35.87 113.025 35.99 113.055 36.11M135.435 15.42C135.585 15.17 135.435 14.98 135.095 14.98C133.355 14.98 131.065 14.98 129.255 14.98C128.825 14.98 128.595 15.03 128.395 15.41C127.725 16.64 119.565 28.35 118.045 30.63C117.785 30.98 117.475 30.93 117.435 30.53C117.285 29.18 116.065 27.63 114.145 26.88C112.685 26.31 111.255 26.21 109.765 26.4C107.085 26.74 104.685 28.1 102.585 29.63C99.4149 31.94 96.6849 34.93 93.1549 37.14C91.2249 38.34 88.5849 39.39 86.8249 37.82C85.2249 36.4 85.4049 33.25 87.8549 30.82C88.1149 30.56 88.4249 30.78 88.3749 31.01C88.1449 32.11 88.4249 33.21 89.3049 33.98C90.3749 34.89 91.8949 35 93.2049 34.39C94.7449 33.66 95.6549 32.25 95.9149 30.64C96.3249 28.15 94.3249 25.96 91.8249 25.78C89.7949 25.64 87.8449 26.32 85.9449 27.82C84.9949 28.58 84.4549 29.13 83.6249 30.26C83.4249 30.54 83.1149 30.56 83.1249 30.16C83.2249 26.98 81.8449 25.19 79.0949 25.13C76.9649 25.08 74.6849 26.19 72.9049 27.55C70.9549 29.05 69.2549 31.03 67.4249 32.9C67.1949 33.13 66.9949 33.12 66.9349 32.67C66.8849 30.56 66.3249 28.52 65.3049 27.07C64.9449 26.56 64.1849 26.31 63.5449 26.66C63.2449 26.81 62.2249 27.27 61.4749 27.84C61.1049 28.13 60.9649 28.56 61.1249 29.1C62.1149 32.25 61.8949 35.84 60.5549 38.86C59.3249 41.63 56.9449 44.13 54.1449 44.98C52.2949 45.54 50.3849 45.27 49.1949 43.7C47.5649 41.54 48.2249 37.78 50.6549 34.66C52.8049 31.91 55.9049 30.17 58.9949 29.04C59.3549 28.91 59.4349 28.68 59.3349 28.39C59.1649 27.9 58.8949 27.24 58.7849 26.94C58.5049 26.22 57.7049 26.1 56.7349 26.2C54.4849 26.45 52.4549 27.19 50.4549 28.22C45.2049 30.91 42.5749 36.11 41.4249 38.9C40.8649 40.24 40.3949 41.07 39.7849 41.81C38.9549 42.81 37.9249 43.71 36.0249 45.31C35.8549 45.46 35.7249 45.76 35.8649 46.05C36.0549 46.43 37.0449 47.77 37.3249 47.89C37.6349 48.04 37.9949 47.83 38.1349 47.73C39.4649 46.87 41.0549 45.5 41.8349 44.57C42.1049 44.25 42.3849 44.39 42.5349 44.87C43.2549 47.35 45.1649 49.37 47.7849 50.22C52.5949 51.77 57.5849 49.53 61.3549 45.61C63.7449 43.12 64.6149 41.52 65.5249 40.44C67.0749 38.6 70.1449 34.47 73.8049 31.82C75.1449 30.84 76.7349 30.1 77.5249 30.59C78.1649 30.99 78.3749 31.91 77.3449 33.7C73.6249 40.21 68.1449 47.86 67.1349 49.72C66.9549 50.04 67.1149 50.29 67.4649 50.29C69.4149 50.29 71.3449 50.29 73.1149 50.29C73.4149 50.28 73.5449 50.15 73.6849 49.95C76.5449 45.67 79.2349 41.59 82.1149 37.37C82.2749 37.12 82.4249 37.31 82.4349 37.42C82.4949 38.4 82.7449 39.74 83.3549 40.61C84.4449 42.23 85.9849 42.93 87.7049 42.94C89.0649 42.95 89.7549 42.76 91.2249 42.23C92.4249 41.81 93.3849 41.25 94.1149 40.74C94.5449 40.45 94.6149 40.93 94.6049 41.01C93.9449 44.41 94.7649 48.44 98.2949 50.11C102.515 52.1 107.165 49.3 109.835 46.77C110.095 46.53 110.375 46.55 110.405 47.08C110.465 48.05 110.915 49.19 111.755 49.99C113.995 52.14 118.505 51.29 123.045 47.93C125.955 45.78 128.995 42.74 131.755 39.53C131.855 39.41 131.935 39.21 131.735 39C131.315 38.58 130.715 38.1 130.295 37.73C130.105 37.58 129.825 37.62 129.665 37.73C126.845 40.3 124.305 43.22 120.645 45.64C119.405 46.47 117.435 47.13 116.555 45.99C116.205 45.55 116.245 44.93 116.585 44.12C117.655 41.57 134.585 16.89 135.465 15.44" fill="white"/>
<path d="M57.0549 15.19C57.5949 14.73 58.3349 14.63 58.7849 15C59.2949 15.41 59.0549 16.44 58.5449 17.16C57.9849 17.95 57.0449 18.63 56.1849 18.79C56.0149 18.82 55.8649 18.75 55.7849 18.38C55.6449 17.41 55.9749 16.11 57.0549 15.19ZM99.4749 2.85999C89.8949 4.96999 80.7549 4.93999 71.2249 3.83999C58.7849 2.38999 46.9149 -0.80001 34.3849 0.18999C23.9749 1.02999 14.0749 6.62999 14.0549 15.15C14.0449 19.47 17.2449 22.96 22.2149 22.81C28.0549 22.62 32.8449 18.14 35.3549 12.5C36.3049 10.36 34.5449 9.46999 33.7049 10.7C32.2049 12.92 30.0949 14.64 27.8149 15.72C25.0649 17.01 22.1349 16.66 21.2449 14.52C19.9949 11.51 22.5949 6.99999 28.5349 4.87999C37.1049 1.83999 46.0849 3.84999 54.7149 5.39999C54.8349 5.39999 55.2949 5.63999 54.8949 5.84999C53.3449 6.65999 51.8249 7.30999 49.4549 9.25999C47.7549 10.65 45.5349 12.51 43.8049 14.53C42.0949 16.52 40.8849 18.3 39.2849 20.27C39.0649 20.55 38.7849 20.54 38.7949 20.54C34.8949 21.17 31.0649 21.59 27.5649 23.92C26.8449 24.4 26.5249 25.25 26.9649 25.9C27.3649 26.48 28.2649 26.54 28.8849 26.1C31.0649 24.54 33.3049 23.81 35.8649 23.74C35.9749 23.74 36.0349 23.77 36.0649 23.83C36.0849 23.87 36.0649 23.95 36.0249 24C32.1749 29.11 31.2149 30.26 28.3249 33.43C26.8449 35.06 25.3849 36.43 23.7649 37.86C17.1949 43.7 10.1249 43.6 7.59492 39.94C6.08492 37.74 6.28492 35.43 7.27492 33.52C8.49492 31.17 10.9649 29.46 13.0249 28.45C13.7849 28.08 14.0049 27.14 13.2449 26.29C12.7549 25.73 11.5849 25.64 10.7049 25.79C8.01492 26.27 4.83492 28.21 2.95492 30.56C0.814921 33.21 -0.245079 36.4 0.114921 39.98C0.754921 46.45 6.31492 50.18 12.6249 50.14C17.6449 50.1 22.3849 48.65 28.0749 43.11C33.3849 37.95 38.2149 30.24 42.7449 23.09C42.8849 22.86 42.9849 22.74 43.6749 22.66C46.5149 22.32 50.7049 21.93 53.3949 21.78C53.9949 21.75 54.1149 21.76 54.3549 22.04C55.0549 22.89 56.1049 23.6 56.9449 24.04C57.3549 24.25 57.5549 24.36 57.8749 24.37C58.2749 24.37 58.5849 24.17 58.7849 23.96C59.0649 23.66 59.1449 23.27 58.9949 23.02C58.8349 22.76 56.9549 21.76 56.9049 21.36C56.8649 21.11 57.1549 21.05 57.1549 21.05C58.5349 20.64 59.9649 19.79 60.8349 18.19C61.6849 16.62 61.8249 14.53 60.2649 13.36C58.8949 12.34 56.8249 12.5 55.1749 13.92C53.5549 15.3 53.0249 17.3 53.2449 19.06C53.2849 19.36 53.2649 19.47 52.8349 19.5C50.3549 19.69 47.9549 19.76 45.2949 19.89C45.1149 19.9 45.0649 19.79 45.1649 19.67C48.2349 14.57 52.8049 10.94 57.8649 7.36999C58.2049 7.12999 58.0949 6.66999 58.0849 6.28999C67.2249 8.18999 76.0549 11.73 85.5449 11.65C89.4649 11.62 93.2249 11.05 96.8049 9.15999C99.9649 7.50999 101.245 5.98999 101.335 4.39999C101.405 3.30999 100.615 2.60999 99.4849 2.84999" fill="white"/>
<path d="M151.425 0.0200195H149.495V50.24H151.425V0.0200195Z" fill="white"/>
<path d="M283.265 50.4001H286.205L289.305 40.2401L292.405 50.4001H295.365L299.955 35.1801H296.695L293.875 44.8901L290.915 35.1801H287.895L284.955 44.8901L282.135 35.1801H278.645L283.255 50.4001H283.265ZM270.655 47.6101C267.185 47.6101 266.025 45.7501 266.025 42.8001C266.025 39.8501 267.185 38.0101 270.655 38.0101C274.125 38.0101 275.285 39.8501 275.285 42.8001C275.285 45.7501 274.125 47.6101 270.655 47.6101ZM270.655 50.5501C275.465 50.5501 278.675 48.4301 278.675 42.7401C278.675 37.0501 275.475 34.9501 270.655 34.9501C265.835 34.9501 262.655 37.0701 262.655 42.7401C262.655 48.4101 265.835 50.5501 270.655 50.5501ZM251.405 42.4101V38.0501H255.305C257.205 38.0501 257.975 38.5001 257.975 40.2501C257.975 42.0001 257.155 42.4101 255.345 42.4101H251.405ZM257.585 50.3001H261.155L258.155 44.9201C260.665 44.1201 261.335 42.2101 261.335 40.1301C261.335 37.2301 260.195 35.1901 255.445 35.1901H248.145V50.3001H251.405V45.2801H254.795L257.585 50.3001ZM236.435 42.4101V38.0501H240.335C242.235 38.0501 243.005 38.5001 243.005 40.2501C243.005 42.0001 242.185 42.4101 240.375 42.4101H236.435ZM242.615 50.3001H246.185L243.185 44.9201C245.695 44.1201 246.365 42.2101 246.365 40.1301C246.365 37.2301 245.225 35.1901 240.465 35.1901H233.165V50.3001H236.425V45.2801H239.815L242.605 50.3001H242.615ZM223.605 47.6101C220.135 47.6101 218.975 45.7501 218.975 42.8001C218.975 39.8501 220.135 38.0101 223.605 38.0101C227.075 38.0101 228.235 39.8501 228.235 42.8001C228.235 45.7501 227.075 47.6101 223.605 47.6101ZM223.605 50.5501C228.415 50.5501 231.625 48.4301 231.625 42.7401C231.625 37.0501 228.425 34.9501 223.605 34.9501C218.785 34.9501 215.605 37.0701 215.605 42.7401C215.605 48.4101 218.785 50.5501 223.605 50.5501ZM197.085 50.3001H200.105V40.2601L204.145 50.3001H206.675L210.735 40.2001V50.3001H213.995V35.1901H209.645L205.545 45.5101L201.445 35.1901H197.085V50.3001ZM187.275 47.6101C183.805 47.6101 182.645 45.7501 182.645 42.8001C182.645 39.8501 183.805 38.0101 187.275 38.0101C190.745 38.0101 191.905 39.8501 191.905 42.8001C191.905 45.7501 190.745 47.6101 187.275 47.6101ZM187.275 50.5501C192.085 50.5501 195.295 48.4301 195.295 42.7401C195.295 37.0501 192.095 34.9501 187.275 34.9501C182.455 34.9501 179.275 37.0701 179.275 42.7401C179.275 48.4101 182.455 50.5501 187.275 50.5501ZM169.915 50.3001H173.285V38.2001H178.505V35.1801H164.675V38.2001H169.915V50.3001Z" fill="white"/>
<path d="M255.045 30.24H258.245V20.04L265.735 30.24H268.795V15.13H265.615V24.66L258.655 15.13H255.045V30.24ZM245.195 27.55C241.725 27.55 240.565 25.69 240.565 22.74C240.565 19.79 241.725 17.95 245.195 17.95C248.665 17.95 249.825 19.79 249.825 22.74C249.825 25.69 248.665 27.55 245.195 27.55ZM245.195 30.49C250.005 30.49 253.215 28.37 253.215 22.68C253.215 16.99 250.015 14.89 245.195 14.89C240.375 14.89 237.195 17.01 237.195 22.68C237.195 28.35 240.375 30.49 245.195 30.49ZM223.635 30.47C229.185 30.47 230.895 28.23 230.895 23.92V21.45H223.365V24.22H227.585V24.55C227.585 26.67 226.725 27.65 223.795 27.65C220.145 27.65 219.245 26.02 219.245 22.71C219.245 19.4 220.525 17.94 223.835 17.94C225.915 17.94 226.915 18.59 227.685 19.33L229.975 17.03C228.775 15.79 226.915 14.89 223.855 14.89C218.755 14.89 215.895 17.22 215.895 22.68C215.895 27.7 217.585 30.47 223.625 30.47M200.455 30.25H203.655V20.05L211.145 30.25H214.205V15.13H211.025V24.66L204.065 15.13H200.455V30.24V30.25ZM195.065 30.25H198.395V15.13H195.065V30.24V30.25ZM183.415 22.36V18H187.315C189.215 18 189.985 18.45 189.985 20.2C189.985 21.95 189.165 22.36 187.355 22.36H183.415ZM189.595 30.25H193.165L190.165 24.86C192.675 24.06 193.345 22.15 193.345 20.07C193.345 17.17 192.205 15.13 187.445 15.13H180.145V30.24H183.405V25.22H186.795L189.585 30.24L189.595 30.25ZM168.685 21.17V17.97H172.535C174.225 17.97 174.755 18.46 174.755 19.52C174.755 20.58 174.305 21.17 172.535 21.17H168.685ZM168.685 27.47V24.06H172.765C174.495 24.06 175.175 24.51 175.175 25.75C175.175 26.99 174.485 27.46 172.765 27.46H168.685V27.47ZM165.405 30.24H172.385C176.445 30.24 178.565 29.36 178.565 26.08C178.565 23.94 177.915 22.8 176.135 22.37C177.525 21.88 178.155 20.78 178.155 19.03C178.155 16.26 176.445 15.13 172.425 15.13H165.405V30.24Z" fill="white"/>
</g>
<defs>
<clipPath id="clip0_74_345">
<rect width="299.91" height="51.13" fill="white" transform="translate(0.0449219)"/>
</clipPath>
</defs>
</svg>
