<svg width="25" height="21" viewBox="0 0 25 21" fill="none" xmlns="http://www.w3.org/2000/svg">
<path fill-rule="evenodd" clip-rule="evenodd" d="M12.464 1.5C9.6597 1.5 7.43769 1.5 6.34526 1.62289C6.05292 1.62849 5.41461 1.7555 4.12325 4.7001C3.9594 4.92318 3.7204 5.06316 3.61755 5.06316C3.41127 5.06316 3.26127 5.00511 3.13072 4.87456C3.01579 4.75933 2.85901 4.69479 2.69604 4.69479H2.32767C1.82934 4.69479 1.35724 4.85747 1.09467 5.12033C1.01186 5.20255 0.954685 5.30717 0.929341 5.42151C0.740441 6.27466 1.15626 6.91473 1.62305 7.14813C1.70056 7.19853 1.83641 7.41365 1.83641 7.52063C1.83641 7.85953 1.8314 8.01071 1.7041 8.20815C0.367357 9.96925 0.548005 17.4168 1.2706 19.1254C1.36696 19.3518 1.58946 19.5 1.83641 19.5H3.31048C3.64968 19.5 3.92492 19.2248 3.92492 18.8856C3.92875 18.8573 3.94142 18.8151 3.95321 18.7653C3.99329 18.6012 4.04781 18.3763 4.04781 18.0869C4.04781 17.924 4.28887 17.7799 4.47777 17.7799H12.4027H20.3277C20.4125 17.7799 20.6692 17.7799 20.7694 18.2066C20.8354 18.5894 20.966 18.923 21.1679 19.2265C21.2822 19.3966 21.4737 19.5 21.6791 19.5H23.1532C23.4067 19.5 23.6333 19.3453 23.7255 19.1104C24.4528 17.2588 24.642 9.92063 23.2664 8.1834C23.2522 8.16483 23.2366 8.14715 23.2192 8.13065C23.1532 8.05255 23.1532 7.69332 23.1532 7.52063C23.1532 7.37505 23.32 7.20914 23.4408 7.10688C23.7385 6.92652 24.0626 6.54165 24.1555 6.09725C24.2171 5.8058 24.1696 5.52318 24.0229 5.28625C23.8673 4.91523 23.3751 4.69479 22.662 4.69479C22.138 4.69479 21.8804 4.86159 21.7646 5.07053C21.6447 5.14303 21.4814 5.18605 21.3105 5.18605C20.923 5.18605 20.8767 5.02456 20.8569 4.95589C20.8478 4.92495 20.8369 4.89489 20.8234 4.86601C19.9024 2.87947 19.3449 2.2447 19.1062 1.97358C19.1026 1.96945 19.0985 1.96444 19.0947 1.96061C19.0042 1.78084 18.8268 1.65059 18.614 1.62672C17.4747 1.5 15.1525 1.5 12.464 1.5Z" stroke="white" stroke-width="1.2"/>
<path fill-rule="evenodd" clip-rule="evenodd" d="M5.09656 7.35548C5.09656 7.35548 5.98174 4.58593 6.97682 3.17316C7.02458 3.10479 7.09637 3.06501 7.17644 3.06059C8.62294 2.9763 16.3049 2.9763 17.7514 3.06059C17.8315 3.06501 17.9033 3.10479 17.9513 3.17316C18.9461 4.58593 19.8313 7.35548 19.8313 7.35548C19.8313 7.35548 16.0874 7.06078 12.4641 7.06078C8.84079 7.06078 5.09656 7.35548 5.09656 7.35548Z" stroke="white" stroke-width="1.2" stroke-linecap="round" stroke-linejoin="round"/>
</svg>
