<svg width="284" height="45" viewBox="0 0 284 45" fill="none" xmlns="http://www.w3.org/2000/svg">
<path d="M179.615 17.5381H143.577V27.3936H179.615V17.5381Z" fill="#30EA03"/>
<path d="M80.2575 33.8721L83.3106 43.5286H94.6827L80.9546 1.40306H64.0353L50.3074 43.5286H61.6794L64.7324 33.8721H80.2575ZM67.9441 24.3044L72.4947 10.3404C72.495 10.3404 77.0457 24.3044 77.0457 24.3044H67.9441ZM210.452 0.403564C197.601 0.403564 187.183 10.2812 187.183 22.4659C187.183 34.6505 197.601 44.5282 210.452 44.5282C223.303 44.5282 233.72 34.6506 233.72 22.4659C233.72 10.2812 223.303 0.403564 210.452 0.403564ZM210.452 35.0483C203.503 35.0483 197.869 29.415 197.869 22.4659C197.869 15.5168 203.503 9.88346 210.452 9.88346C217.401 9.88346 223.034 15.5168 223.034 22.4659C223.034 29.415 217.401 35.0483 210.452 35.0483ZM102.014 1.40306H112.715V33.6729H136.047L136.046 43.5286H102.014L102.014 1.40306ZM143.577 1.40166H179.623V11.2572H143.577V1.40166ZM143.577 33.6728L179.623 33.6731V43.5286H143.577V33.6728ZM251.99 43.5273H241.289V1.40166H251.99L273.164 27.7874V1.40166H283.865V43.5274H273.164L251.99 17.141V43.5273ZM32.2757 1.40316H42.9764V43.5289H32.2757V27.3934H11.101V43.5288H0.400269V1.40316H11.101V17.538H32.2758L32.2757 1.40316Z" fill="white"/>
</svg>
