<svg width="338" height="122" viewBox="0 0 338 122" fill="none" xmlns="http://www.w3.org/2000/svg">
<path fill-rule="evenodd" clip-rule="evenodd" d="M3.31918 23.9834H3.81706V23.7834H3.31918V23.9834ZM3.48514 24.2834H4.42557L4.59153 24.0834C4.59153 23.8834 4.53621 23.8834 4.42557 23.7834C3.70642 23.7834 3.70642 23.7834 3.31918 23.9834L3.48514 24.2834ZM4.14897 24.3834C4.42557 24.0834 4.48089 24.0834 4.14897 23.7834H3.31918C3.31918 24.2834 3.42982 24.2834 4.14897 24.3834ZM3.48514 34.1834H3.98301C4.20429 33.9834 4.25961 34.0834 4.14897 33.7834H3.31918C3.31918 34.0834 3.31918 34.0835 3.48514 34.1834ZM4.14897 28.7834L3.81706 28.6834C3.48514 28.8834 3.26386 28.8834 3.31918 29.0834L3.48514 29.2834H4.31493C4.59153 28.9834 4.70217 28.9834 4.14897 28.7834ZM4.31493 33.9834C4.14897 33.7834 4.42557 33.8834 3.98301 33.7834L3.6511 33.6834H3.3745V34.2834H4.31493C4.31493 34.0834 4.42557 34.0834 4.31493 33.9834ZM78.7199 115.883V115.683C78.4433 115.683 78.5539 115.683 78.7199 115.883ZM3.9277 28.2834C4.20429 27.9834 4.14897 28.0834 3.9277 27.7834C3.20854 27.8834 3.04258 28.0834 3.9277 28.2834ZM235.44 4.98345C235.551 4.98345 235.551 4.68345 235.274 4.78345C234.887 4.88345 235.33 4.98345 235.44 4.98345ZM235.772 4.28345L236.104 4.18345L235.938 3.78345H235.109C235.219 4.18345 235.219 4.18345 235.772 4.28345ZM235.772 5.28345C235.883 5.08345 235.883 4.98345 235.772 4.78345H235.109C235.109 5.08345 235.109 5.08345 235.274 5.18345H235.772V5.28345ZM76.3411 115.983L76.2305 115.783C75.5666 115.783 75.2347 116.383 75.2347 116.483C75.456 116.683 75.4007 116.683 75.8986 116.683C76.0645 116.483 75.8986 116.183 76.3411 115.983ZM237.598 5.28345C237.709 5.08345 237.709 4.98345 237.598 4.78345H236.768C236.768 5.08345 236.823 5.08345 236.934 5.28345H237.598ZM77.1709 115.783L77.005 115.683H76.4518L76.3411 115.883L76.5071 115.983H77.1709V115.783ZM253.53 5.28345L254.194 5.08345V4.98345L254.028 4.78345H253.364C253.364 4.98345 253.364 4.98345 253.53 5.08345V5.28345ZM245.73 4.98345L245.564 4.78345H245.232L245.066 5.08345H245.564L245.73 4.98345ZM80.7667 118.783H81.5965C81.9837 118.383 81.8731 118.083 81.4305 117.783C79.605 117.783 80.2135 118.383 80.7667 118.783ZM3.48514 40.2834H4.14897C4.25961 40.2834 4.37025 40.0834 4.42557 39.9834L4.14897 39.7834H3.31918C3.31918 40.0834 3.3745 40.1834 3.48514 40.2834ZM3.48514 28.2834H4.14897C4.25961 28.0834 4.25961 27.9834 4.14897 27.7834H3.31918C3.31918 28.0834 3.3745 28.0834 3.48514 28.2834ZM3.48514 36.1834H4.14897C4.25961 35.9834 4.25961 35.9834 4.14897 35.7834H3.31918L3.48514 36.1834ZM7.08091 34.1834L6.91496 33.7834H6.08516C6.1958 34.0834 6.1958 34.0834 6.58304 34.2834L7.08091 34.0834V34.1834ZM3.6511 27.2834H4.14897C4.37025 27.0834 4.48089 27.0834 4.31493 26.7834C3.70642 26.7834 3.70642 26.7834 3.31918 26.9834L3.6511 27.2834ZM3.98301 31.4834L4.42557 31.0834C4.42557 30.8834 4.42557 30.8834 4.31493 30.7834H3.48514L3.31918 30.9834C3.42982 31.1834 3.59578 31.2834 3.98301 31.4834ZM3.42982 30.2834H4.14897C4.25961 30.0834 4.25961 29.9834 4.14897 29.7834C3.59578 29.7834 3.6511 29.7834 3.31918 29.9834L3.48514 30.2834H3.42982ZM3.42982 34.2834H4.14897C4.31493 34.0834 4.42557 33.9834 3.98301 33.8834L3.6511 33.7834L3.31918 33.9834C3.31918 34.1834 3.3745 34.1834 3.48514 34.2834H3.42982ZM174.257 117.283C173.092 116.864 171.901 116.73 170.716 116.883L169.831 117.083C169.831 117.083 169.831 117.283 169.942 117.283L170.495 117.583C171.325 117.383 172.819 117.283 174.257 117.283ZM110.75 116.583L111.192 116.383C110.75 116.383 110.307 116.183 109.92 116.083V116.183L109.367 116.283C109.347 116.243 109.332 116.195 109.322 116.144C109.313 116.092 109.309 116.038 109.312 115.983C108.648 115.94 107.984 115.94 107.32 115.983C107.541 115.983 108.261 116.483 108.316 116.583L108.095 116.683L108.205 116.783L109.754 116.483C109.975 116.483 110.307 116.683 110.75 116.583ZM47.9068 117.083L47.5749 116.783H47.0217V116.983L47.4643 117.083H47.9068ZM331.807 85.0835C331.365 84.7834 331.42 84.4835 331.42 84.0835C331.309 83.8835 331.033 83.7834 330.977 83.4834L329.318 83.5835L329.207 83.9834C328.322 84.2834 328.267 84.4835 328.156 84.6834C328.488 84.6834 328.709 84.8834 328.875 84.9834L327.824 85.1834C328.267 85.4835 328.046 85.4835 327.935 85.5835C327.603 85.8835 328.156 86.1834 327.935 86.3834C327.935 86.6834 327.935 86.7834 328.433 86.7834L329.926 86.4834C330.092 86.6834 330.148 86.6834 330.148 86.8834C329.594 86.8834 329.041 87.0835 328.654 87.1834H329.76C330.314 87.2834 331.033 87.4834 331.088 87.7834C330.811 87.7834 330.922 88.0834 330.977 88.3834C331.586 88.0834 331.641 87.9834 331.42 87.7834C331.697 87.4834 331.531 87.5835 331.42 87.2834C331.863 87.0835 331.807 86.8834 332.582 86.7834C332.858 86.9834 333.024 86.8834 333.08 87.1834C332.748 87.3834 333.135 87.8834 333.19 88.1834C332.803 88.1834 332.471 88.2834 332.36 88.5835C332.914 88.5835 333.19 88.6834 333.19 88.9834C333.522 89.1834 333.412 89.5835 333.301 89.7834C332.637 89.9834 331.697 90.1834 331.531 90.5835C332.526 90.6834 332.582 90.5835 333.301 90.5835C333.301 90.7834 333.577 90.9834 333.412 91.2834C332.803 91.7834 333.301 92.0835 333.412 92.2834C333.577 92.5835 333.356 92.8834 333.412 93.1834C333.522 93.4835 333.024 93.7834 333.19 94.1834C333.467 94.7834 332.471 95.3834 332.692 95.6834C333.135 96.3834 333.411 97.4835 333.08 98.1834L332.139 98.3834L333.19 98.6834C333.577 98.9835 333.411 99.6834 333.633 100.083L333.522 100.583C333.799 101.183 334.407 101.883 334.02 102.583L333.467 102.983C333.633 103.383 333.356 103.583 333.301 103.583L333.412 104.983C333.743 105.583 333.799 106.983 333.412 107.783V108.883C333.301 109.083 333.19 109.683 333.301 109.883C333.467 110.183 333.743 110.883 333.633 111.083L333.301 112.083C333.577 112.983 333.854 114.283 333.412 115.083C333.08 115.583 333.688 116.083 333.854 116.383C333.965 116.583 333.688 116.683 333.633 116.883L333.743 117.383L333.301 117.783L333.412 118.783L332.582 119.883C332.029 119.883 331.309 119.883 331.088 119.583C330.977 119.483 331.088 119.283 331.088 119.083C330.756 119.083 330.701 118.883 330.258 118.783C330.258 119.083 330.148 119.183 330.148 119.183C329.318 119.183 329.484 119.283 329.041 119.383L327.935 119.083L327.05 119.283C327.05 118.983 326.939 118.883 326.773 118.683C326.275 118.683 326.275 118.383 326.109 118.383C325.501 118.183 324.45 118.083 324.118 117.783C324.505 117.583 325.003 117.783 325.169 117.483C324.118 117.183 322.956 117.583 322.126 117.683C321.628 117.683 321.407 117.383 320.743 117.383C319.858 117.883 316.096 118.383 315.875 118.883C316.539 119.183 316.926 119.683 316.926 120.183C316.207 120.583 315.267 120.883 315.156 121.383C314.99 121.683 314.603 121.783 313.884 121.783C313.386 121.583 313.054 121.583 313.054 121.083C313.607 120.783 313.054 119.883 312.943 119.583C312.943 119.583 313.165 119.383 313.054 119.183C312.943 118.983 312.556 118.683 312.722 118.483C313.33 117.983 312.943 117.683 312.722 117.583C311.837 117.383 310.288 117.583 309.237 117.583H297.62L289.598 117.483C287.662 117.283 285.781 117.583 284.232 117.483C282.351 117.283 280.581 117.583 278.756 117.483H268.079C267.526 117.383 267.36 117.183 266.419 117.183C265.475 117.55 264.505 117.651 263.543 117.483H259.726L257.07 117.383C255.245 117.483 252.811 117.583 251.815 117.383H250.211C249.658 116.983 248.883 117.083 248.219 117.083L248.828 117.383H247.832C246.726 117.583 246.062 117.383 244.679 117.483H242.577C240.364 117.683 237.598 117.483 235.109 117.483H201.917C201.64 117.383 200.7 116.883 199.981 117.083C199.593 117.483 199.538 117.483 198.819 117.583C198.155 117.683 195.721 117.483 194.836 117.483H190.908C190.355 117.683 190.023 117.983 189.414 118.083C186.402 118.721 183.362 118.788 180.342 118.283C179.789 118.283 179.014 117.983 177.687 118.083C176.802 118.083 175.529 118.483 174.202 118.383C173.095 118.383 171.27 118.083 169.997 118.183C168.559 118.183 166.844 118.383 165.129 118.283H162.474L159.431 117.783H155.725L154.231 117.383H153.235C152.627 117.383 152.793 117.583 151.852 117.583L151.023 117.283L149.418 117.083C148.81 117.283 148.478 117.383 148.146 117.283H143.997C143.167 117.483 142.725 117.483 142.227 117.283H136.529L135.423 117.183C134.593 117.283 134.482 117.583 133.21 117.583C132.435 117.283 131.108 117.383 130.112 117.583C129.116 117.583 128.452 117.283 127.346 117.383C126.627 117.383 125.686 117.683 124.856 117.583H123.473L122.478 117.183L120.818 116.983C120.265 117.383 119.712 117.583 118.605 117.683H116.559C115.673 117.783 114.29 118.083 112.963 117.983C111.248 117.883 109.754 117.183 107.431 117.283C105.495 117.483 103.669 117.783 102.009 117.583L100.958 117.483H96.0902C95.537 117.483 94.9838 117.783 94.3753 117.883L91.8859 117.983L90.8349 118.083C89.5072 118.083 87.5157 117.983 86.0774 117.783C85.1369 117.783 84.1965 117.483 83.3114 117.383C79.9922 117.183 77.2262 117.183 74.5709 117.183C74.4603 117.083 74.4603 116.983 74.4603 116.783C75.0135 116.783 75.0688 116.483 75.8432 116.483C76.0645 116.483 77.4475 116.683 77.9454 116.583H80.2688L81.8178 116.383C81.6518 115.983 81.7071 115.883 81.5412 115.783H80.2688C79.8263 115.483 79.439 115.483 79.0518 115.383H77.5028C75.7326 115.683 74.9581 115.583 74.2943 115.383L74.8475 115.983L73.7411 116.083C73.9624 115.883 73.4092 115.683 73.2985 115.583C73.0219 115.583 73.2985 115.883 73.1879 115.983C73.0773 116.183 72.6347 116.383 72.0815 116.383H70.5326C71.1964 116.583 71.4177 116.583 71.9155 116.483H73.0773C73.5198 116.683 74.073 116.683 74.239 116.883C73.8517 116.983 73.9624 117.083 73.2985 117.083H70.9751L70.1453 116.783C69.1779 117.091 68.1938 117.192 67.2134 117.083C66.8815 116.883 66.3283 116.583 65.3878 116.583C65.2219 116.883 65.4985 116.883 65.6644 117.183H63.8942C62.7878 116.983 61.9027 117.183 61.4601 117.183H57.1452C55.7622 117.183 54.3792 116.883 53.5494 116.983L49.5664 117.083C50.6728 117.283 51.392 117.083 52.1111 117.283C51.5579 117.683 50.5068 117.583 49.7877 117.583L48.7366 117.283C48.46 117.483 48.3494 117.583 47.5749 117.583L44.4217 117.483L42.928 117.583C42.9834 117.383 43.2046 117.283 43.3706 117.283H42.2642C41.0472 117.283 39.3323 117.483 37.8386 117.383L36.7322 117.183H35.4046C32.196 117.184 28.9875 117.184 25.779 117.183H23.6768L22.6811 117.683H18.9746C18.6427 117.683 18.4214 117.483 17.8129 117.583C17.0385 117.783 16.4299 117.683 16.1533 117.683L14.3278 117.583H13.0554C11.0086 117.683 10.1788 117.583 8.62987 117.383C7.35751 117.083 6.4724 117.383 5.86388 117.383L4.75749 117.283H3.3745C3.48514 116.883 3.26386 116.683 3.26386 116.583C3.26386 116.583 3.3745 116.283 3.15322 115.983C3.3745 115.783 3.42982 115.183 3.26386 114.883C3.0979 114.583 3.26386 114.383 3.26386 114.383C3.81706 113.983 2.93194 113.583 2.8213 113.383C2.71066 113.183 3.3745 113.083 3.3745 112.883L2.8213 110.283C3.48514 109.883 2.8213 109.283 3.04258 108.983C3.31918 108.583 3.15322 107.983 3.15322 107.583V104.983C3.15322 104.083 2.87662 102.983 3.26386 102.283C3.6511 101.683 2.93194 100.983 3.26386 100.483C3.70642 99.8834 2.87662 99.2834 3.26386 98.5835L3.15322 98.0835C3.31918 97.5835 3.31918 96.7834 3.26386 96.1834L3.15322 95.5835C3.15322 95.5835 3.0979 95.1834 3.26386 94.9834C3.48514 94.7834 3.9277 94.7834 3.98301 94.4834C3.26386 94.1834 2.87662 93.8834 3.15322 93.4834C3.31918 93.0834 2.98726 92.8835 3.15322 92.5835C3.20854 92.5835 3.3745 92.2834 3.26386 92.1834C3.15322 91.9835 3.6511 91.3835 3.3745 91.0835C3.15322 90.6834 2.98726 89.7834 3.26386 89.4834C3.42982 89.2834 3.9277 89.1834 4.09365 89.0835C4.31493 88.8835 4.20429 88.4834 4.20429 88.2834C2.71066 87.8834 3.54046 87.6834 3.15322 86.9834C3.04258 86.7834 3.31918 86.5835 3.15322 86.2834C2.65534 85.5835 3.15322 84.5835 3.15322 83.7834L3.04258 72.5835C3.42982 72.4835 4.53621 72.0834 4.09365 71.8834C3.6511 71.6834 3.15322 71.8834 3.04258 71.4834C2.65534 71.2834 3.26386 70.4835 3.26386 70.0835C3.0979 69.3835 3.0979 68.9834 3.15322 68.4834C3.0979 68.4834 2.93194 68.1834 3.04258 67.9834C3.0979 67.8834 3.04258 67.5834 3.15322 67.4834C3.42982 67.1834 3.70642 67.2834 3.70642 66.7834C2.98726 66.5835 3.3745 66.3834 3.15322 65.9834C3.04258 65.7834 3.42982 65.4834 3.26386 65.2834C3.0979 64.9834 2.87662 64.2834 3.15322 63.8834C3.54046 63.3834 5.03409 62.5834 4.53621 61.8834L4.20429 61.4834V60.7834C4.03833 60.5834 3.48514 60.2834 3.76174 59.8834L4.31493 59.4834V58.9834C4.59153 58.6834 4.75749 58.1834 4.64685 57.7834C3.98301 57.6834 3.6511 57.4834 3.04258 57.2834C3.04258 56.8834 3.81706 56.2834 3.59578 56.0834C3.3745 55.8834 3.04258 55.9834 3.04258 55.5834C4.25961 55.1834 4.53621 54.5834 3.98301 53.8834C3.76174 53.6834 4.48089 53.3834 4.09365 53.1834C3.9277 52.9834 3.3745 52.8834 3.04258 52.7834C3.31918 52.3834 5.03409 51.2834 4.53621 50.7834C4.03833 50.3834 3.98301 50.1834 3.98301 50.0834C3.70642 49.7834 3.04258 49.7834 3.04258 49.2834C3.76174 49.0834 3.31918 48.5834 3.15322 48.2834C2.98726 47.8834 3.59578 47.6834 3.3745 47.2834C3.26386 47.0834 2.8213 46.7834 2.93194 46.4834C2.98726 46.3834 2.98726 46.1834 3.15322 45.9834L3.87238 45.6834C4.42557 45.1834 4.48089 44.5834 4.92345 44.0834C5.25537 43.5834 4.59153 43.0834 5.03409 42.4834L6.52772 41.3834C6.91496 40.9834 6.91496 40.4834 6.97028 40.1834L6.749 39.2834C6.58304 38.9834 6.85964 38.4834 6.52772 38.1834L6.08516 37.7834C5.75324 37.3834 6.36176 36.9834 6.52772 36.6834L6.41708 35.2834C6.58304 35.0834 6.85964 34.8834 7.19155 34.7834C6.85964 33.7834 6.91496 33.2834 7.19155 32.4834C6.63836 32.4834 6.08516 31.9834 6.02984 31.6834C6.58304 31.3834 6.41708 30.6834 6.25112 30.4834C6.02984 30.1834 6.63836 29.9834 6.4724 29.7834C6.41708 29.6834 5.9192 29.4834 6.02984 29.2834C6.1958 28.8834 5.58728 28.2834 5.6426 28.0834C5.75324 27.8834 6.25112 27.7834 6.36176 27.6834C6.58304 27.2834 6.14048 27.1834 6.02984 27.0834C5.80856 26.7834 6.41708 26.7834 6.36176 26.5834C5.75324 26.1834 6.08516 25.8834 5.9192 25.5834L5.36601 25.2834C5.08941 25.0834 5.75324 24.8834 5.80856 24.6834C5.80856 24.5834 5.42133 24.4834 5.31069 24.2834C5.08941 23.9834 5.69792 23.8834 5.80856 23.5834L4.64685 23.4834H5.75324C6.02984 23.2834 6.14048 23.2834 6.14048 22.9834C4.86813 22.5834 5.80856 22.5834 5.20005 21.9834C5.03409 21.8834 4.64685 21.9834 4.48089 21.6834C5.31069 21.3834 4.70217 20.8834 5.08941 20.5834C5.25537 20.1834 5.08941 20.1834 4.86813 20.0834C4.53621 20.3834 4.48089 20.5834 4.42557 20.7834C3.70642 21.2834 3.98301 21.4834 3.6511 21.7834C2.87662 21.5834 2.93194 21.1834 2.93194 20.9834C3.26386 20.8834 3.54046 20.7834 3.6511 20.5834C3.0979 20.5834 2.93194 20.5834 2.93194 20.1834L3.26386 19.1834C3.15322 18.9834 2.93194 18.8834 2.93194 18.6834C3.59578 18.6834 3.76174 18.7834 3.98301 18.8834L4.03833 18.4834C4.59153 18.3834 4.92345 18.4834 4.97877 18.0834C4.20429 17.6834 4.25961 17.2834 4.31493 16.8834C3.759 16.6718 3.20568 16.4384 2.65534 16.1834C2.98726 16.0834 3.20854 16.0834 3.31918 15.8834C3.76174 15.5834 4.25961 15.5834 4.48089 15.3834C4.17239 15.308 3.87315 15.139 3.59578 14.8834C4.42557 14.3834 3.76174 13.8834 3.0979 13.4834L3.6511 13.0834C3.6511 12.8834 3.6511 12.7834 3.9277 12.5834C4.53621 12.5834 4.64685 12.5834 4.75749 12.3834L2.8213 11.7834L2.93194 11.1834C2.8213 11.0834 2.48938 10.7834 2.71066 10.4834C2.76598 10.4834 3.26386 10.2834 3.04258 10.0834C2.48938 9.88345 2.71066 9.68345 2.71066 9.58345L2.65534 9.18345C2.71066 8.78345 2.8213 8.68345 2.98726 8.68345C3.04258 8.48345 3.26386 8.38345 3.54046 8.38345L2.87662 7.78345C2.98726 7.68345 2.98726 7.58345 3.04258 7.38345H2.10215C2.76598 7.08345 2.93194 7.08345 2.93194 6.68345C2.37875 6.68345 2.37874 6.38345 1.65959 6.28345C0.774475 6.28345 0.553196 6.08345 0.387238 5.98345C-0.387238 5.78345 1.05107 5.68345 1.05107 5.68345C1.43831 5.68345 1.32767 5.48345 1.88087 5.38345C2.21279 5.68345 2.32343 5.78345 2.71066 5.88345C3.20854 5.58345 3.87238 5.88345 4.70217 5.68345C5.80856 5.58345 7.63411 5.28345 9.34902 5.48345C9.90222 5.48345 10.5661 5.78345 11.3958 5.68345L12.8342 5.48345L15.3789 5.68345H16.5959C18.4768 5.38345 22.5704 5.78345 23.5662 5.88345C25.8896 5.98345 27.8811 5.68345 29.8726 5.88345C31.9748 6.18345 34.7407 6.28345 36.9535 6.08345L40.2727 6.18345H43.1493C44.0344 6.08345 45.9153 5.98345 47.1323 6.08345C48.626 6.18345 50.6728 6.28345 52.2217 6.08345C53.4388 6.08345 54.2133 6.38345 55.4856 6.18345C55.8175 6.18345 56.3707 5.98345 56.8686 6.08345L61.4048 5.98345H65.1112L68.1538 5.68345L69.6474 5.98345H70.8092C72.4134 6.18345 74.4049 6.08345 76.0645 6.28345C77.1709 6.28345 79.1071 5.98345 80.1029 6.08345C80.9326 6.18345 84.0859 6.38345 85.0263 6.28345H86.8519C87.9582 6.18345 90.1157 5.98345 91.4987 6.18345C92.0519 6.18345 93.0477 6.38345 93.8221 6.18345L96.4221 5.98345C97.7498 5.78345 101.014 5.98345 102.065 6.18345H105.439C107.486 6.18345 109.975 6.18345 111.856 5.98345L114.069 6.08345H120.431C121.039 6.08345 122.09 5.88345 123.031 6.08345H124.303C124.912 6.08345 125.41 5.68345 125.963 5.58345C127.069 5.48345 127.456 5.88345 128.01 5.88345H130.942L134.04 5.78345H138.354C138.908 5.78345 140.014 5.58345 140.899 5.68345C141.563 5.68345 142.116 5.98345 142.669 6.08345C143.499 6.28345 145.269 6.08345 146.155 6.18345C147.095 6.28345 148.091 6.18345 148.699 6.08345H150.082L154.397 5.98345C155.504 5.88345 156.61 5.48345 157.772 5.38345L161.367 5.48345C162.861 6.58345 164.631 5.78345 167.508 6.08345H175.806C176.857 6.18345 180.397 6.48345 181.725 6.38345C183.44 6.18345 186.759 6.18345 188.363 6.38345C189.193 6.38345 190.742 6.18345 191.461 6.28345L192.734 6.48345C194.172 6.28345 194.117 6.48345 194.67 6.48345L198.376 6.38345L200.036 6.28345C200.589 6.28345 201.142 5.98345 201.585 5.88345H203.244C204.517 5.68345 206.619 6.08345 208.223 5.88345C210.436 5.58345 214.087 5.38345 216.964 5.68345H220.062L221.168 5.78345C221.998 5.88345 222.772 5.68345 223.215 5.58345H225.759L228.525 5.68345C229.792 5.40281 231.068 5.3025 232.343 5.38345C232.564 5.58345 232.564 5.68345 233.394 5.68345C234.5 5.38345 235.274 5.48345 236.657 5.48345L237.543 4.88345L238.372 5.08345C239.036 5.28345 239.036 5.48345 239.423 5.48345L240.696 5.18345C241.747 5.48345 243.185 5.18345 243.849 5.08345C244.292 5.08345 244.402 5.08345 244.789 5.28345H245.896L247.445 5.48345L247.666 5.08345C248.551 5.28345 248.662 5.18345 248.828 5.08345L250.211 5.18345H251.538L252.921 4.98345L252.534 5.38345C253.198 5.38345 253.751 5.28345 253.862 5.08345C254.249 4.78345 254.415 4.88345 254.747 4.88345C255.024 5.08345 255.798 5.38345 255.577 5.58345C256.296 5.48345 256.241 5.28345 256.407 4.98345C257.347 5.28345 256.849 5.38345 257.07 5.58345H258.232C258.343 5.28345 258.066 5.28345 257.79 5.28345L257.9 4.68345C258.398 4.88345 258.453 4.98345 259.283 4.98345C259.615 4.78345 260.113 4.78345 260.224 4.58345C260.334 4.18345 260.721 4.18345 261.053 4.08345C261.883 4.48345 262.16 4.38345 262.326 4.58345L261.275 4.88345C261.883 5.08345 261.385 5.28345 261.607 5.58345H262.713C263.266 5.68345 263.819 5.88345 264.594 5.78345C265.313 5.78345 266.419 5.48345 267.526 5.58345C268.743 5.68345 269.739 5.78345 271.122 5.58345C271.896 5.58345 271.841 5.78345 272.505 5.78345L275.547 5.58345C277.169 5.47639 278.793 5.47639 280.415 5.58345L281.466 5.78345C282.186 5.78345 283.403 5.58345 284.343 5.78345C285.062 5.78345 287.662 5.98345 288.326 5.78345H290.539C292.088 5.58345 294.411 5.58345 296.679 5.58345C299.888 5.58345 304.037 5.48345 306.637 5.78345L308.075 5.58345C309.016 5.48345 310.952 5.58345 311.671 5.78345C310.216 6.53707 308.738 7.13807 307.245 7.58345C306.471 7.78345 305.53 7.88345 305.309 8.38345C308.186 8.98345 311.726 8.38345 312.722 10.0834C312.777 10.0834 313.054 10.2834 312.943 10.5834C312.722 10.9834 312.39 11.4834 312.39 11.8834C313.734 11.7091 315.084 11.7091 316.428 11.8834L317.701 12.0834L319.692 11.5834H321.075C321.518 11.4834 321.518 11.2834 322.182 11.2834C323.675 11.8834 324.671 11.3834 326.773 11.2834L327.16 11.6834C326.552 12.0834 326.054 12.1834 325.722 12.2834C326.275 12.6834 327.769 12.2834 328.654 12.2834C328.875 12.4834 328.986 12.4834 328.986 12.7834C328.433 12.8834 326.773 13.4834 326.663 13.7834C327.382 14.1834 326.939 14.5834 327.769 14.7834L327.382 15.1834C328.433 15.1834 328.488 15.1834 328.488 15.3834C327.382 15.5834 327.05 15.5834 326.884 15.7834C327.382 15.9834 328.322 16.3834 328.046 16.5834C327.824 16.8834 327.216 16.8834 326.939 17.0834L328.046 17.3834C327.88 17.7834 328.046 17.8834 327.935 17.9834C327.603 18.2834 327.769 18.3834 327.824 18.6834H326.773L326.663 18.9834C326.939 18.9834 326.994 19.2834 327.216 19.3834C328.322 19.5834 328.101 19.8834 328.543 20.0834C327.88 20.3834 327.824 20.6834 327.382 20.7834C326.275 20.9834 326.275 20.9834 326.22 21.1834L327.326 21.2834C327.658 21.5834 327.935 21.6834 327.935 22.0834C327.824 22.3834 328.931 23.2834 329.041 23.3834H327.603C327.437 23.5834 327.382 23.5834 327.382 23.7834C327.824 23.9834 327.658 24.0834 327.603 24.3834H328.765C328.211 24.7834 327.437 24.9834 327.382 25.3834C328.322 25.3834 328.433 25.1834 329.207 25.0834C328.82 25.3834 328.599 25.3834 328.543 25.6834C328.986 25.7834 329.373 25.8834 329.484 26.0834C328.82 26.2834 328.322 26.3834 328.322 26.7834C328.765 26.8834 329.318 27.2834 328.765 27.5834H327.603C327.271 28.1834 326.552 27.8834 326.331 28.2834C327.05 28.4834 327.658 28.3834 327.603 28.9834C327.99 29.2834 328.875 29.3834 329.373 29.4834C329.484 29.8834 329.594 29.8834 329.705 30.0834C329.041 30.0834 329.097 30.3834 328.599 30.4834L327.714 30.6834C328.267 30.9834 328.931 31.0834 328.986 31.3834C328.433 31.3834 328.267 31.5834 328.322 31.8834L329.097 32.1834C328.322 32.5834 326.828 32.3834 326.663 32.9834C327.216 32.9834 328.377 33.1834 328.543 33.3834C328.211 33.4834 328.046 33.4834 327.99 33.6834H329.926C330.424 33.8834 330.424 33.9834 330.369 34.1834H331.475C331.033 34.5835 330.977 34.6834 329.926 34.5834C329.373 34.3834 328.765 34.5834 327.824 34.5834L328.654 34.9834C327.824 34.9834 327.326 35.3834 327.382 35.8834C328.267 35.6834 328.599 35.5834 329.484 35.5834C329.982 35.8834 331.143 35.8834 331.309 36.2834C331.641 36.4834 331.697 36.4834 331.42 36.6834C332.36 37.5835 330.977 37.5834 330.756 38.4834C330.314 38.9834 329.816 38.6834 329.484 38.7834C329.041 38.7834 329.207 38.9834 328.986 39.1834C328.709 39.1834 328.156 39.5834 328.156 39.5834L329.484 39.4834C329.65 39.5834 329.705 39.6834 329.705 39.8834H326.552C326.165 40.2834 325.556 40.4834 325.445 40.8834C325.888 40.8834 326.109 41.0834 326.884 41.0834C327.382 40.7834 328.654 40.5834 329.65 40.5834C329.373 40.9834 328.931 40.9834 328.875 41.2834C329.65 41.5834 329.594 41.6834 329.594 41.6834C330.258 41.5835 331.254 41.6834 331.42 41.8834C330.535 42.2834 328.931 42.4834 328.875 42.8834L329.926 42.9834C330.092 43.2834 329.76 43.3834 329.705 43.5834C330.811 43.8834 330.148 43.7834 330.369 44.0834C331.033 44.4834 331.033 44.6834 330.922 44.7834C331.033 44.8834 331.199 44.9834 331.199 45.1834H329.539L328.543 45.3834C329.263 45.7834 329.207 46.3834 330.037 46.5834C330.756 46.0834 332.029 46.2834 332.36 45.9834C332.526 45.8834 332.36 45.6834 332.25 45.4834H333.301C333.135 44.5834 333.08 43.2834 333.412 42.5834C333.799 41.8834 333.356 40.5834 333.08 39.9834C332.969 39.8834 333.246 39.5834 333.301 39.4834C333.356 39.2834 332.969 38.8834 332.858 38.6834C332.582 38.2834 333.854 37.4834 333.08 37.0834L332.139 36.7834C332.471 36.5834 332.139 36.4834 332.471 36.3834C333.024 36.1834 333.412 36.3834 333.412 35.8834C333.301 35.7834 333.467 35.6834 333.522 35.4834C333.356 35.0834 333.356 34.8834 333.412 34.5834C333.965 34.6834 333.965 34.7834 333.965 35.0834C334.186 35.1834 333.743 35.8834 334.352 36.2834C334.739 36.5834 335.735 36.6834 336.178 36.9834C336.952 37.3834 337.616 38.1834 337.948 38.7834C338.224 39.3834 337.339 40.4834 336.786 40.7834C336.399 41.0834 335.735 41.4834 336.067 41.9834C336.343 42.3834 337.173 42.9834 336.897 43.4834C336.675 43.9834 336.067 44.7834 336.343 45.3834C336.62 45.9834 337.063 46.6834 336.675 47.3834L336.565 48.5834C336.233 49.0834 335.458 49.5834 335.182 49.8834L335.016 51.4834C334.905 51.7834 334.407 51.9834 334.131 52.1834L333.577 52.4834L332.692 51.9834L332.858 51.5834C332.416 51.2834 332.471 51.1834 332.471 51.0834C332.084 50.8834 332.084 50.6834 332.139 50.5834C332.139 50.3834 331.531 49.9834 331.807 49.5834L330.977 49.2834C331.033 49.0834 331.088 48.9834 330.424 48.9834C330.424 49.3834 330.646 49.3834 330.867 49.3834C330.701 49.6834 330.867 49.9834 330.314 50.1834H328.875C328.488 50.5835 328.599 50.8834 329.097 50.9834C329.871 50.9834 330.037 50.5834 330.977 50.4834C330.535 50.8834 329.982 51.1834 329.484 51.3834C329.041 51.4834 328.543 51.4834 328.322 51.6834C328.543 51.9834 328.543 52.0834 329.097 52.0834C330.369 51.4834 329.982 51.2834 331.42 51.2834C331.365 51.4834 331.42 51.5835 331.42 51.6834C330.701 51.6834 330.314 51.6834 330.314 52.0834L331.697 52.1834C332.471 52.2834 332.582 52.3834 332.582 52.6834C332.305 52.8834 332.416 52.8834 332.471 53.0834C331.088 52.8834 329.705 53.0834 328.433 53.0834C328.046 53.2834 327.714 53.2834 327.88 53.6834H329.484C329.594 53.8834 329.65 53.9834 330.037 54.0834L330.977 53.9834C331.143 53.8834 331.088 53.6834 331.088 53.4834L332.748 53.5834C332.36 53.8834 332.36 53.8834 332.36 54.2834C331.918 54.2834 331.42 54.4834 331.309 54.6834H330.258C330.59 54.9834 330.756 54.9834 331.199 54.9834H332.25C332.471 54.5834 332.637 54.1834 333.743 54.1834C333.743 54.4834 333.854 54.6834 333.743 54.7834C333.412 55.1834 333.743 55.1834 333.633 55.3834L333.301 55.6834C333.965 55.8834 333.688 56.1834 333.854 56.6834C334.241 57.2834 333.854 57.9834 333.633 58.6834C333.522 58.9834 334.131 59.3834 333.854 59.7834C333.743 60.0834 333.301 60.1834 333.19 60.4834C333.743 60.6834 333.522 60.8834 333.743 61.2834C334.131 61.6834 333.909 62.2834 333.633 62.8834L333.743 63.5834C333.577 64.0834 333.522 64.3834 333.522 64.7834L331.863 64.5834C331.973 64.3834 331.918 64.3834 331.807 64.1834C332.139 64.1834 332.25 64.0834 332.25 63.7834C331.365 63.5834 330.756 63.7834 330.258 63.9834C329.65 63.9834 329.926 64.2834 329.926 64.2834C330.148 64.7834 330.756 64.5835 331.42 64.6834L332.526 64.8834C332.305 65.1834 331.973 65.1834 331.918 65.4834C330.922 65.6834 331.199 65.7834 330.369 65.8834C329.982 66.0834 330.037 66.0835 330.148 66.1834L328.875 66.0835L328.986 66.7834C328.322 66.7834 327.88 66.9834 327.88 67.2834C328.765 67.4834 328.267 68.2834 328.654 68.4834C329.373 68.6834 329.428 68.7834 329.484 68.8834C328.931 69.3834 329.263 69.5835 329.207 69.6834C329.041 70.0835 328.211 70.4834 329.207 70.8834C328.986 71.1834 328.543 71.1834 328.433 71.5835C328.931 71.5835 329.152 71.5834 329.207 71.9834C328.709 71.9834 328.654 71.9834 328.654 72.3834H330.037L331.42 71.9834C331.641 71.7834 331.42 71.5834 331.309 71.3834C331.309 71.1834 331.586 71.0834 331.42 70.8834L330.867 70.5835C330.701 70.2834 331.033 70.0834 330.977 69.9834C330.922 69.7834 330.535 69.6834 330.424 69.5835C331.088 69.5835 331.199 69.3834 331.697 69.1834L331.309 68.7834C330.369 68.3834 328.322 67.5835 329.594 66.7834C330.499 66.3838 331.43 66.2155 332.36 66.2834C332.36 66.5835 332.084 66.6834 332.029 66.8834C332.748 66.7834 332.858 66.4834 333.688 66.4834C334.075 66.8834 334.573 67.0834 334.795 67.4834L334.905 68.4834C335.182 68.8834 336.177 69.4835 335.846 70.0835C335.403 70.7834 333.19 71.4835 333.854 72.5835C334.186 73.0835 335.182 73.9834 334.684 74.7834L334.241 75.1834C334.02 75.5835 334.075 76.9834 334.352 77.2834C334.573 77.5835 335.237 77.7834 335.458 78.0835C335.846 78.3835 335.624 78.7834 335.846 79.0835C335.901 79.2834 336.178 79.3835 336.067 79.5835C335.79 80.1834 335.68 81.0835 335.292 81.5835C335.016 82.0835 334.297 82.4834 334.02 82.8834V83.2834C333.356 84.2834 333.467 85.4835 333.467 86.5835L332.36 86.6834C331.973 86.4835 331.475 86.3835 331.309 86.0835C331.586 85.9835 331.973 85.3835 331.807 85.0835ZM330.037 84.7834H329.705C329.871 84.9834 329.76 84.8834 330.037 84.7834ZM330.977 86.4834C331.309 86.3834 331.254 86.3835 331.365 86.0835C331.033 85.9835 330.48 86.0835 330.148 85.7834L329.705 85.8834C329.816 86.2834 330.756 86.4834 330.977 86.4834ZM68.5964 117.783C68.5964 117.983 68.6517 118.083 68.7623 118.183H69.5921V117.783H68.5964ZM330.922 86.0835V85.7834H330.369L330.258 85.8834C330.314 86.0834 330.258 86.0835 330.424 86.1834H330.922V86.0835ZM79.1071 117.783V118.283H79.439C79.8146 118.297 80.1887 118.196 80.5454 117.983C80.1582 117.983 79.9922 117.883 79.7709 117.683L79.1071 117.783ZM75.2347 117.783C75.3454 118.083 75.4007 117.983 75.5666 118.183H76.2305V117.783H75.2347ZM68.0432 117.783C68.3198 118.283 68.7623 118.283 69.0389 117.783H68.0432ZM333.909 53.7834H333.577L333.743 53.9834C333.854 53.9834 333.854 53.9834 333.909 53.7834ZM2.71066 12.8834L2.5447 12.7834L2.21279 12.8834V13.0834H2.87662L2.71066 12.8834ZM334.407 53.8834H333.577C333.577 54.0834 333.633 54.2834 333.743 54.3834H334.407V53.7834V53.8834ZM335.79 83.9834C335.79 85.0834 336.841 84.7834 337.45 84.3834V83.8834C336.786 83.6834 336.343 83.7834 335.79 83.9834ZM330.535 71.7834L329.982 71.8834H329.705V72.3834L330.811 72.2834C330.756 71.9834 330.701 71.9834 330.535 71.7834ZM333.743 64.7834H333.577C333.688 65.0835 333.743 65.0835 333.909 65.2834H334.241L334.407 64.8834H333.743V64.7834ZM332.637 64.7834L332.471 64.9834C332.582 65.3834 332.914 65.4834 333.301 65.7834H333.909C333.909 65.4834 333.965 65.0834 333.743 64.9834V64.7834H332.637ZM330.59 64.2834H330.922L331.088 64.1834V63.7834L330.424 63.8834H330.258L330.59 64.2834ZM70.9751 117.083L70.8092 117.183C71.1964 117.483 71.2517 117.483 71.6389 117.483H72.0815V116.983C71.5283 116.783 71.3624 116.683 70.9751 116.983V117.083ZM334.573 23.7834H333.577C333.577 23.9834 333.577 24.0834 333.743 24.1834L333.909 24.4834H334.573V23.7834ZM334.241 23.6834H333.688C333.743 24.0834 333.909 23.9834 333.577 24.1834C333.577 24.3834 333.633 24.5834 333.743 24.6834H334.573C334.518 24.1834 334.297 24.0834 334.241 23.6834ZM332.25 15.5834L333.024 15.4834L333.19 14.9834L333.024 14.7834L332.748 14.6834C332.194 14.6834 332.25 14.6834 331.918 14.8834C331.918 15.0834 331.918 15.1834 332.084 15.2834L332.25 15.5834ZM334.075 25.6834H333.577V25.9834H334.075V25.7834V25.6834ZM332.969 13.6834H332.471C332.471 13.9834 333.024 15.7834 333.135 15.8834C333.135 16.2834 333.135 16.4834 333.412 16.6834H333.743C334.186 16.2834 334.02 15.6834 333.743 15.2834L334.075 14.4834C333.965 14.1834 333.301 13.8834 332.969 13.7834V13.6834ZM333.909 11.6834H333.577C333.577 11.8834 333.467 12.0834 333.356 12.1834C333.356 12.7834 333.246 12.8834 332.471 13.0834L332.582 13.1834H333.356L333.577 13.3834V13.6834H334.02C334.02 13.2834 333.854 12.4834 334.131 12.2834C334.131 11.9834 334.075 11.8834 333.909 11.6834ZM334.463 14.6834H333.909C333.19 15.6834 333.799 16.6834 333.799 17.8834C333.799 18.1834 333.356 19.0834 333.799 19.2834C333.799 19.4834 333.909 19.5834 334.131 19.6834H334.573C334.96 19.0834 334.573 18.6834 334.573 17.9834C334.573 16.9834 334.794 16.0834 334.739 14.9834C334.573 14.9834 334.518 14.7834 334.407 14.6834H334.463ZM333.577 29.0834H334.075V28.7834H333.577V29.0834ZM334.573 20.8834L333.743 20.7834L333.577 20.9834C333.633 21.3834 333.688 21.3834 333.909 21.5834C334.297 21.5834 334.241 21.4834 334.573 21.3834V20.7834V20.8834ZM333.743 21.8834C333.633 22.0834 333.467 22.3834 333.743 22.5834V22.7834H334.352L334.518 21.8834H333.743ZM333.246 10.7834H333.909C334.075 10.5834 334.131 10.3834 334.131 10.0834L333.743 9.78345C333.19 9.78345 332.36 9.98345 331.918 10.1834C332.084 10.6834 332.858 10.4834 333.246 10.7834ZM333.577 34.0834H334.407V33.8834H333.577V34.0834ZM334.684 8.88345L334.573 8.78345C334.186 8.78345 334.186 8.78345 333.909 8.98345C333.909 9.28345 333.909 9.68345 333.577 9.98345C333.577 10.3834 333.633 10.4834 334.241 10.6834L334.407 10.7834L334.684 10.4834C335.016 10.1834 334.905 9.48345 334.85 9.08345C334.739 9.08345 334.795 9.08345 334.684 8.88345ZM334.684 28.8834C334.131 28.7834 333.965 28.6834 333.743 29.0834C333.633 29.0834 333.688 29.0834 333.577 29.2834C333.743 29.2834 333.799 29.3834 333.909 29.5834L334.684 29.4834V28.7834V28.8834ZM334.131 9.68345V8.58345C333.467 8.28345 333.854 8.28345 333.909 7.88345L333.467 7.78345C333.024 8.18345 333.19 8.28345 332.471 8.58345C332.526 9.08345 332.914 9.38345 333.301 9.78345H334.075L334.131 9.68345ZM334.241 29.7834H333.577C333.577 30.0834 333.743 30.3834 333.577 30.5834L333.743 30.7834H334.407C334.407 30.4834 334.518 30.1834 334.573 29.9834L334.241 29.7834ZM334.241 33.7834L333.577 33.8834V34.3834H334.407C334.407 34.0834 334.297 33.9834 334.241 33.7834ZM334.739 32.7834C334.186 32.7834 333.135 32.7834 333.743 33.2834L333.909 33.5834C334.463 33.5834 334.407 33.4834 334.739 33.3834V32.7834ZM333.633 34.7834H334.463C334.573 34.5834 334.463 34.5834 334.629 34.4834C334.629 34.0834 334.518 33.9834 334.297 33.7834H333.799C333.412 34.1834 333.633 34.2834 333.688 34.7834H333.633ZM331.254 20.1834V19.7834L330.258 19.8834L330.424 20.2834H331.254V20.1834ZM3.20854 17.8834H2.21279L2.37875 18.1834H3.04258L3.20854 17.8834ZM3.20854 17.1834V16.8834H2.21279C2.21279 17.0834 2.26811 17.1834 2.37875 17.2834H3.20854V17.1834ZM2.32343 8.78345H1.99151L1.65959 8.88345V9.28345L2.32343 9.18345H2.65534L2.32343 8.78345ZM59.3027 117.783L58.6388 117.883C58.6941 118.283 58.8048 118.283 59.1367 118.583L59.7452 118.483V118.083L59.6346 117.883L59.3027 117.783ZM55.8728 118.083H56.3707V117.783H55.8728V118.083ZM1.65959 17.7834C1.88087 18.0834 2.04683 17.7834 2.21279 17.7834H1.65959ZM56.9792 117.783C56.9792 118.083 57.0346 118.183 57.1452 118.283C58.0303 118.283 58.0856 118.283 58.2516 117.783C57.6984 117.683 57.5878 117.583 56.9792 117.783ZM325.39 9.78345L325.667 9.88345C326.607 9.88345 326.718 9.68345 326.939 9.28345L326.663 9.08345L326.552 8.88345C325.611 8.88345 325.722 9.08345 325.28 9.38345C325.28 9.58345 325.28 9.58345 325.39 9.68345V9.78345ZM313.331 3.78345C314.271 3.78345 313.994 3.38345 314.603 3.28345H315.488L316.373 2.78345C316.373 1.88345 316.428 1.58345 316.982 0.983447L315.599 0.783447L314.216 1.38345C314.05 1.58345 314.16 1.68345 313.994 1.78345C313.994 2.38345 313.939 2.48345 313.331 2.78345C312.999 2.98345 313.109 3.38345 313.22 3.78345H313.331ZM66.3836 117.783C66.4389 118.183 66.4942 118.183 66.7155 118.383C67.2687 118.383 67.1581 118.383 67.49 118.183V117.983C67.0474 117.783 66.9368 117.683 66.3836 117.883V117.783ZM332.084 36.1834C332.637 36.0835 332.526 36.1834 332.748 35.8834H332.084C331.973 35.8834 332.029 35.8834 331.918 36.0834H332.084V36.1834ZM0 16.7834C0 17.0834 0.0553197 17.0834 0.165959 17.2834C0.774475 17.2834 0.774475 17.2834 0.995754 16.8834C0.829795 16.7834 0.885114 16.8834 0.829795 16.6834L0 16.7834ZM312.667 2.18345L312.833 1.88345H312.003L312.335 2.18345H312.667ZM310.896 1.18345C311.062 1.08345 311.007 1.08345 311.062 0.883447C310.73 0.883447 310.454 0.683447 310.122 0.883447H309.79V1.18345H310.896ZM312.003 6.18345V5.98345H312.169C312.501 5.78345 312.667 5.78345 313.109 5.88345V6.18345H312.003Z" fill="#F1F1F1"/>
</svg>
