<svg width="127" height="53" viewBox="0 0 127 53" fill="none" xmlns="http://www.w3.org/2000/svg">
<g id="Component 4">
<path id="Vector" d="M88.85 14.0101C88.85 11.0701 86.48 8.69006 83.55 8.69006C80.62 8.69006 78.25 11.0701 78.25 14.0101C78.25 16.9501 80.62 19.33 83.55 19.33C86.48 19.34 88.85 16.9501 88.85 14.0101Z" fill="#E30613"/>
<path id="Vector_2" d="M108.65 6.64999C108.65 2.97999 105.69 0 102.03 0C98.3699 0 95.4099 2.97999 95.4099 6.64999C95.4099 10.32 98.3799 13.3 102.03 13.3C105.68 13.3 108.65 10.32 108.65 6.64999Z" fill="#E30613"/>
<path id="Vector_3" d="M71.5499 20.3701C71.5499 18.1701 69.7699 16.3801 67.5799 16.3801C65.3799 16.3801 63.6099 18.1701 63.6099 20.3701C63.6099 22.5701 65.3899 24.3601 67.5799 24.3601C69.7699 24.3601 71.5499 22.5701 71.5499 20.3701Z" fill="#164284"/>
<path id="Vector_4" d="M67.5798 27.35C66.5898 27.35 65.6398 27.14 64.7898 26.76V52.09H70.3698V26.76C69.5198 27.14 68.5698 27.35 67.5798 27.35Z" fill="#164284"/>
<path id="Vector_5" d="M17.19 18.04C7.57 18.04 0 25.75 0 35.38C0 44.94 7.51 52.71 17.19 52.71C26.74 52.71 34.38 44.95 34.38 35.38C34.39 25.73 26.74 18.04 17.19 18.04ZM17.19 47.19C10.44 47.19 5.66 42.02 5.66 35.38C5.66 28.71 10.55 23.56 17.19 23.56C23.78 23.56 28.72 28.72 28.72 35.38C28.72 41.99 23.8 47.19 17.19 47.19Z" fill="#164284"/>
<path id="Vector_6" d="M94.98 26.9501H89.16L83.5 45.9901L77.78 26.9501H71.96L80.43 52.0901H86.51L94.98 26.9501Z" fill="#164284"/>
<path id="Vector_7" d="M102.16 26.9501H96.8298V52.0901H102.16V26.9501Z" fill="#164284"/>
<path id="Vector_8" d="M55.83 30.7301V26.9501H50.5V52.0901H55.83V39.8201C55.77 35.4901 58.42 31.4801 62.71 31.8501V26.6601C59.25 26.6401 57.19 28.0101 55.83 30.7301Z" fill="#164284"/>
<path id="Vector_9" d="M47.9998 46.7C47.0798 47.13 46.2998 47.36 45.2198 47.36C43.1498 47.36 42.1798 46.38 42.1798 43.49V31.81H47.0998L48.7698 26.96H42.1798V19.27L36.8298 21.38V44.98C36.8298 50.49 39.8698 52.46 43.7998 52.46C45.4698 52.46 46.7398 52.19 47.9898 51.73V46.7H47.9998Z" fill="#164284"/>
<path id="Vector_10" d="M117.8 26.6201C114.89 26.6201 112.74 27.5101 111.11 29.3301V26.9601H105.78V52.1001H111.11V38.5001C111.11 34.2201 112.7 31.6201 116.47 31.6201C119.79 31.6201 120.97 33.5901 120.97 37.0301V52.1001H126.3V36.5101C126.3 30.5001 123.4 26.6201 117.8 26.6201Z" fill="#164284"/>
</g>
</svg>
