<svg width="160" height="67" viewBox="0 0 160 67" fill="none" xmlns="http://www.w3.org/2000/svg">
<g id="Group 1">
<path id="Vector" d="M112.449 17.7312C112.449 14.0103 109.45 10.9982 105.741 10.9982C102.033 10.9982 99.0336 14.0103 99.0336 17.7312C99.0336 21.4521 102.033 24.4642 105.741 24.4642C109.45 24.4768 112.449 21.4521 112.449 17.7312Z" fill="white"/>
<path id="Vector_2" d="M137.508 8.41626C137.508 3.77149 133.762 0 129.13 0C124.497 0 120.751 3.77149 120.751 8.41626C120.751 13.061 124.51 16.8325 129.13 16.8325C133.749 16.8325 137.508 13.061 137.508 8.41626Z" fill="white"/>
<path id="Vector_3" d="M90.5538 25.7805C90.5538 22.9961 88.301 20.7307 85.5293 20.7307C82.745 20.7307 80.5049 22.9961 80.5049 25.7805C80.5049 28.5648 82.7577 30.8302 85.5293 30.8302C88.301 30.8302 90.5538 28.5648 90.5538 25.7805Z" fill="white"/>
<path id="Vector_4" d="M85.5293 34.6143C84.2764 34.6143 83.0741 34.3485 81.9983 33.8676V65.9253H89.0603V33.8676C87.9846 34.3485 86.7823 34.6143 85.5293 34.6143Z" fill="white"/>
<path id="Vector_5" d="M21.7557 22.8315C9.58063 22.8315 0 32.5893 0 44.7771C0 56.8763 9.50469 66.71 21.7557 66.71C33.8423 66.71 43.5115 56.8889 43.5115 44.7771C43.5241 32.564 33.8423 22.8315 21.7557 22.8315ZM21.7557 59.7239C13.2129 59.7239 7.16332 53.1807 7.16332 44.7771C7.16332 36.3355 13.3521 29.8177 21.7557 29.8177C30.0961 29.8177 36.3482 36.3482 36.3482 44.7771C36.3482 53.1428 30.1214 59.7239 21.7557 59.7239Z" fill="white"/>
<path id="Vector_6" d="M120.207 34.1082H112.841L105.678 58.2052L98.4387 34.1082H91.0729L101.793 65.9254H109.487L120.207 34.1082Z" fill="white"/>
<path id="Vector_7" d="M129.294 34.1082H122.548V65.9254H129.294V34.1082Z" fill="white"/>
<path id="Vector_8" d="M70.6587 38.8923V34.1083H63.913V65.9255H70.6587V50.3966C70.5827 44.9165 73.9365 39.8415 79.366 40.3097V33.7412C74.987 33.7159 72.3799 35.4498 70.6587 38.8923Z" fill="white"/>
<path id="Vector_9" d="M60.7487 59.1037C59.5844 59.6479 58.5972 59.939 57.2303 59.939C54.6105 59.939 53.3829 58.6987 53.3829 55.0411V40.2589H59.6097L61.7233 34.1207H53.3829V24.3882L46.6119 27.0586V56.9269C46.6119 63.9004 50.4594 66.3936 55.4332 66.3936C57.5468 66.3936 59.154 66.0519 60.736 65.4697V59.1037H60.7487Z" fill="white"/>
<path id="Vector_10" d="M149.088 33.6906C145.405 33.6906 142.684 34.8169 140.621 37.1203V34.1209H133.875V65.9382H140.621V48.7259C140.621 43.3091 142.633 40.0186 147.405 40.0186C151.606 40.0186 153.1 42.5118 153.1 46.8655V65.9382H159.846V46.2074C159.846 38.6011 156.175 33.6906 149.088 33.6906Z" fill="white"/>
</g>
</svg>
