<svg xmlns="http://www.w3.org/2000/svg" viewBox="0 0 250.8 278.4">
  <defs>
    <style>
      .b{fill:#5b5600}
    </style>
  </defs>
  <path fill="#f37321" d="M176 117.2h-40.3l-11.4 37.3-11.4-37H72L105 93 94.1 59l30.4 20 29.7-20.4L141.5 94l34.4 23.2z"/>
  <path class="b" d="M0 170.7v-41.6l124.8 108.2 88.4-81.3v41l-88.4 81.4L0 170.7z"/>
  <path class="b" d="M0 198.2l30.8 25.6v-19.1L0 178zm249.5 0V58.6l-124.7 113L0 58.6v63.1l30.8 26.8V128l94 85.1 94-85.2v96zM128.4 44.1h15v7.4h-15zM116.6 1.2h9.2v50.3h-9.2z"/>
  <path class="b" d="M158 45c-5.1-1-5.4-7-5.4-10.8v-14c0-3.6-.6-11.5 5.4-12.5V0c-13.7.6-14.7 9.9-15 22.3v7.2c0 13 .9 22.6 15 23.2zM160.6 0v7.7c5.7 1 5.5 9 5.5 12.8v12.9c0 4.5 0 10.8-5.5 11.6v7.7c14.2-.6 15.2-10.2 15.2-23.2v-7.2C175.4 10 174.4.5 160.6 0zM233.7 0v7.6c5.9 1 5.7 9.1 5.7 12.9v12.9c0 4.5 0 11-5.7 11.6v7.7c14.4-.5 15.4-10.1 15.4-23.2v-7.2C248.7 9.8 247.7.5 233.7 0zM231.1 45c-5-1-5.2-7-5.2-10.8v-14c0-3.6-.6-11.4 5.2-12.5V0c-13.6.6-14.5 10-14.9 22.3v7.2c0 13 1 22.5 15 23.1zM197.4 7.6c5.3.7 5.6 4.6 5.7 9.3h9.4a31.2 31.2 0 00-.5-6C210 2.4 205 .2 197.4 0zM197.4 31.8h5.8c.2 7-1.3 12.4-5.8 13.2v7.5c3-.5 6-2.1 7.7-6.8h.2v5.8h7v-27h-14.9zM194.8 45c-5-1-5.3-7-5.3-10.8v-14c0-3.6-.5-11.4 5.3-12.5V0c-13.6.6-14.5 10-15 22.3v7.2c0 13 1 22.5 15 23.1zM48.5 51.5V1.2H58v50.3zM34.2 51.5V1.2h9.4v50.3zM100.7 51.5V1.2h9.4v50.3zM95.3 42.7l-9.2-18V1h9.2v41.6zM63.2 10l9.1 18v23.5h-9.1V10zM0 10l9.2 18v23.5H0V10zM96 51.5H86L62.4 1.1h10L96 51.5zM31 4.7v19.8l-10 22L0 1h10l11.2 24.2L31 4.7z"/>
  <path class="b" d="M250.8 3.4a2.2 2.2 0 11-2.2-2.2 2.2 2.2 0 012.2 2.2zm-.4 0a1.8 1.8 0 10-1.8 1.8 1.8 1.8 0 001.8-1.8zm-.7.4a1 1 0 01-1 .9 1.2 1.2 0 01-1.2-1.3 1.2 1.2 0 011.2-1.3 1 1 0 011 .9h-.5a.5.5 0 00-.5-.5.8.8 0 00-.7.9.8.8 0 00.7.9.5.5 0 00.5-.5z"/>
</svg>
