<svg width="102" height="40" viewBox="0 0 102 40" fill="none" xmlns="http://www.w3.org/2000/svg">
<path d="M85.0032 27.845C85.0257 27.9877 85.221 28.1229 85.4087 28.1905C85.4763 28.213 85.5139 28.258 85.4388 28.4083C84.898 29.5198 84.4023 30.1582 83.7264 31.1195C83.103 32.0133 82.4046 32.7042 81.5484 33.3726C80.2641 34.3865 78.4841 35.4981 77.0121 34.7546C76.3587 34.4316 76.0733 33.5529 76.0883 32.8469C76.1183 30.8491 77.0496 28.8063 78.7545 26.7935C80.8424 24.3376 83.1481 23.0608 84.6652 23.7593C86.2274 24.4728 85.7317 26.2077 85.0332 27.5746C84.9806 27.6797 84.9806 27.7699 85.0032 27.86M101.811 12.3209C101.924 12.1332 101.811 11.9905 101.556 11.9905C100.249 11.9905 98.5294 11.9905 97.17 11.9905C96.8471 11.9905 96.6744 12.028 96.5241 12.3134C96.021 13.2372 89.8924 22.0319 88.7509 23.7443C88.5556 24.0071 88.3228 23.9696 88.2927 23.6692C88.1801 22.6553 87.2638 21.4912 85.8218 20.9279C84.7253 20.4998 83.6513 20.4247 82.5322 20.5674C80.5194 20.8227 78.7169 21.8441 77.1398 22.9932C74.7589 24.7281 72.7086 26.9738 70.0574 28.6336C68.6079 29.5348 66.6252 30.3234 65.3033 29.1443C64.1017 28.0778 64.2368 25.712 66.0769 23.887C66.2722 23.6917 66.505 23.8569 66.4674 24.0297C66.2947 24.8558 66.505 25.682 67.1659 26.2603C67.9695 26.9437 69.1111 27.0263 70.095 26.5682C71.2516 26.0199 71.935 24.961 72.1303 23.7518C72.4382 21.8817 70.9361 20.2369 69.0585 20.1017C67.5339 19.9966 66.0694 20.5073 64.6424 21.6339C63.9289 22.2046 63.5234 22.6177 62.9 23.4664C62.7498 23.6767 62.517 23.6917 62.5245 23.3913C62.5996 21.003 61.5631 19.6586 59.4978 19.6136C57.8981 19.576 56.1857 20.4097 54.8488 21.4311C53.3843 22.5576 52.1075 24.0447 50.7331 25.4491C50.5604 25.6219 50.4102 25.6144 50.3651 25.2764C50.3276 23.6917 49.907 22.1596 49.1409 21.0706C48.8705 20.6875 48.2997 20.4998 47.8191 20.7626C47.5938 20.8753 46.8277 21.2208 46.2644 21.6489C45.9865 21.8667 45.8814 22.1896 46.0016 22.5952C46.7451 24.961 46.5799 27.6572 45.5735 29.9254C44.6497 32.0057 42.8622 33.8833 40.7593 34.5217C39.3699 34.9423 37.9354 34.7395 37.0416 33.5604C35.8174 31.9382 36.3131 29.1142 38.1381 26.771C39.7529 24.7056 42.0811 23.3988 44.4018 22.5501C44.6722 22.4525 44.7323 22.2798 44.6572 22.0619C44.5295 21.6939 44.3267 21.1983 44.2441 20.9729C44.0338 20.4322 43.433 20.3421 42.7045 20.4172C41.0146 20.6049 39.49 21.1607 37.9879 21.9343C34.045 23.9546 32.0697 27.86 31.206 29.9554C30.7854 30.9618 30.4325 31.5852 29.9743 32.1409C29.351 32.892 28.5774 33.5679 27.1504 34.7696C27.0227 34.8822 26.9251 35.1075 27.0302 35.3253C27.1729 35.6107 27.9165 36.6171 28.1268 36.7073C28.3596 36.8199 28.63 36.6622 28.7351 36.5871C29.734 35.9412 30.9281 34.9123 31.514 34.2138C31.7167 33.9735 31.927 34.0786 32.0397 34.4391C32.5804 36.3017 34.0149 37.8188 35.9827 38.4572C39.5952 39.6213 43.3429 37.939 46.1743 34.9949C47.9693 33.1248 48.6227 31.9231 49.3061 31.112C50.4703 29.7301 52.776 26.6283 55.5248 24.638C56.5312 23.902 57.7253 23.3462 58.3186 23.7142C58.7993 24.0147 58.957 24.7056 58.1835 26.05C55.3896 30.9393 51.2739 36.6847 50.5153 38.0817C50.3801 38.322 50.5003 38.5098 50.7632 38.5098C52.2277 38.5098 53.6772 38.5098 55.0065 38.5098C55.2319 38.5023 55.3295 38.4046 55.4346 38.2544C57.5826 35.04 59.6029 31.9757 61.7659 28.8063C61.8861 28.6185 61.9987 28.7612 62.0063 28.8439C62.0513 29.5799 62.2391 30.5863 62.6972 31.2397C63.5159 32.4564 64.6725 32.9821 65.9642 32.9896C66.9857 32.9971 67.5039 32.8544 68.6079 32.4564C69.5092 32.1409 70.2302 31.7203 70.7784 31.3373C71.1014 31.1195 71.1539 31.48 71.1464 31.5401C70.6507 34.0936 71.2666 37.1203 73.9178 38.3746C77.0872 39.8692 80.5795 37.7662 82.5848 35.8661C82.7801 35.6858 82.9904 35.7009 83.0129 36.0989C83.058 36.8274 83.3959 37.6836 84.0268 38.2845C85.7091 39.8992 89.0963 39.2608 92.5061 36.7373C94.6916 35.1226 96.9748 32.8394 99.0477 30.4286C99.1228 30.3384 99.1828 30.1882 99.0326 30.0305C98.7172 29.7151 98.2666 29.3546 97.9511 29.0767C97.8084 28.964 97.5981 28.9941 97.478 29.0767C95.36 31.0069 93.4524 33.1999 90.7036 35.0174C89.7723 35.6408 88.2927 36.1365 87.6318 35.2803C87.3689 34.9498 87.399 34.4842 87.6543 33.8758C88.458 31.9607 101.173 13.425 101.834 12.336" fill="white"/>
<path d="M42.9449 12.1482C43.3504 11.8027 43.9062 11.7276 44.2442 12.0055C44.6272 12.3134 44.447 13.087 44.0639 13.6277C43.6433 14.221 42.9374 14.7317 42.2915 14.8519C42.1638 14.8744 42.0511 14.8219 41.991 14.544C41.8859 13.8155 42.1337 12.8391 42.9449 12.1482ZM74.8041 2.88781C67.6091 4.47251 60.7446 4.44997 53.5871 3.62383C44.2442 2.53482 35.3293 0.138994 25.9187 0.882525C18.1004 1.5134 10.6651 5.71923 10.6501 12.1181C10.6426 15.3626 13.0459 17.9837 16.7786 17.8711C21.1647 17.7284 24.7621 14.3637 26.6473 10.1279C27.3608 8.52062 26.0389 7.85219 25.408 8.77598C24.2815 10.4433 22.6968 11.7351 20.9844 12.5462C18.919 13.515 16.7185 13.2522 16.0501 11.645C15.1113 9.38432 17.064 5.99712 21.5252 4.40491C27.9616 2.12174 34.7059 3.63134 41.1874 4.79545C41.2776 4.79545 41.623 4.9757 41.3226 5.13342C40.1585 5.74177 39.0169 6.22994 37.2369 7.69448C35.9602 8.73842 34.2929 10.1354 32.9936 11.6525C31.7093 13.147 30.8005 14.4839 29.5989 15.9634C29.4336 16.1737 29.2233 16.1662 29.2308 16.1662C26.3018 16.6394 23.4253 16.9548 20.7966 18.7047C20.2559 19.0652 20.0156 19.7036 20.346 20.1918C20.6464 20.6274 21.3224 20.6725 21.788 20.342C23.4253 19.1704 25.1076 18.6221 27.0303 18.5696C27.1129 18.5696 27.158 18.5921 27.1805 18.6372C27.1955 18.6672 27.1805 18.7273 27.1505 18.7648C24.2589 22.6027 23.5379 23.4664 21.3674 25.8472C20.2559 27.0714 19.1594 28.1003 17.9427 29.1743C13.0083 33.5604 7.69847 33.4852 5.79834 30.7364C4.66426 29.0841 4.81447 27.3492 5.558 25.9147C6.47427 24.1498 8.32935 22.8655 9.87649 22.107C10.4473 21.8291 10.6125 21.1231 10.0417 20.4847C9.67371 20.0641 8.79499 19.9965 8.13408 20.1092C6.11377 20.4697 3.72546 21.9267 2.3135 23.6917C0.706272 25.6819 -0.0898324 28.0777 0.180543 30.7665C0.66121 35.6257 4.837 38.4271 9.57608 38.3971C13.3463 38.367 16.9062 37.278 21.1797 33.1172C25.1677 29.2419 28.7952 23.4513 32.1975 18.0814C32.3026 17.9086 32.3777 17.8185 32.8959 17.7584C35.0289 17.5031 38.1758 17.2102 40.1961 17.0975C40.6467 17.075 40.7368 17.0825 40.9171 17.2928C41.4428 17.9312 42.2314 18.4644 42.8623 18.7949C43.1702 18.9526 43.3204 19.0352 43.5607 19.0427C43.8611 19.0427 44.094 18.8925 44.2442 18.7348C44.4545 18.5095 44.5145 18.2166 44.4019 18.0288C44.2817 17.8335 42.8698 17.0825 42.8322 16.7821C42.8022 16.5943 43.02 16.5493 43.02 16.5493C44.0564 16.2413 45.1304 15.6029 45.7838 14.4013C46.4222 13.2221 46.5273 11.6525 45.3557 10.7737C44.3268 10.0077 42.7721 10.1279 41.5329 11.1943C40.3162 12.2308 39.9182 13.7329 40.0834 15.0547C40.1134 15.28 40.0984 15.3626 39.7755 15.3851C37.9129 15.5278 36.1104 15.5804 34.1126 15.678C33.9774 15.6856 33.9399 15.6029 34.015 15.5128C36.3207 11.6825 39.7529 8.95622 43.5532 6.27501C43.8086 6.09476 43.726 5.74928 43.7184 5.46388C50.583 6.89086 57.2147 9.54955 64.342 9.48946C67.2861 9.46693 70.1101 9.03884 72.7988 7.61937C75.1721 6.38015 76.1334 5.23857 76.201 4.04441C76.2536 3.22578 75.6603 2.70005 74.8116 2.8803" fill="white"/>
</svg>
