<svg width="212" height="50" viewBox="0 0 212 50" fill="none" xmlns="http://www.w3.org/2000/svg">
<g clip-path="url(#clip0_473_201)">
<path d="M3.71744 0.843506L9.72429 16.5104L21.9432 48.3784H18.2974L12.5869 33.5445L0 0.843506H3.71744ZM46.2962 0.843506L27.8507 48.38H25.0077L6.7803 0.843506H10.571L23.1107 33.9724L35.7252 0.843506H39.4443L24.8627 39.0913L26.3201 43.0407L42.5055 0.843506H46.2962Z" fill="white"/>
<path d="M51.0363 0.843506H54.5355V48.38H51.0363V0.843506ZM57.3785 0.843506H60.8778V48.38H57.3785V0.843506Z" fill="white"/>
<path d="M69.6283 0.841919H72.2532L105.062 48.3785H100.98L79.4715 17.0054V48.3785H75.9723V11.5207L73.1292 7.49775V48.3785H69.63V0.841919H69.6283ZM75.7524 0.841919H79.8346L101.415 32.362V0.841919H104.914V37.7732L107.757 41.7961V0.841919H111.256V48.3785H108.558L75.7524 0.841919Z" fill="white"/>
<path d="M117.603 24.6118C117.603 10.7154 127.81 0.111816 141.882 0.111816C150.557 0.111816 159.015 4.71945 162.732 13.2748L159.451 14.5913C156.388 7.27725 149.608 3.40135 141.88 3.47485C129.12 3.62185 121.174 12.8355 121.174 24.6102C121.174 36.3849 129.558 45.7455 142.098 45.7455C152.887 45.7455 159.158 38.9443 160.179 31.7772H157.336C156.242 37.6278 150.919 42.8937 142.098 43.0391C131.307 43.1861 124.017 35.2873 124.017 24.6102C124.017 13.9331 131.307 6.18128 141.88 6.18128C148.66 6.18128 154.275 9.69132 156.899 15.8343L153.618 17.2226C151.868 12.5415 147.494 9.54432 141.88 9.54432C133.058 9.54432 127.59 16.272 127.59 24.6102C127.59 32.9483 132.766 39.676 142.1 39.676C148.807 39.676 152.744 36.0925 153.692 31.7772H142.1V28.4126H163.971V29.3632C163.971 38.9427 155.369 48.9615 142.1 49.1086C127.81 49.2556 117.603 38.6503 117.603 24.6085V24.6118ZM142.1 22.3447H163.971V25.7094H142.1V22.3447Z" fill="white"/>
<path d="M205.694 3.29512C202.644 4.45479 200.646 5.28289 198.545 5.75329C198.159 5.83986 197.791 5.91499 197.438 5.97706C196.705 6.11426 196.13 6.17959 195.683 6.20409C194.207 6.30699 193.099 6.12079 192.289 5.64222C192.284 5.63896 192.28 5.63732 192.275 5.63406C192.232 5.60792 192.19 5.58179 192.151 5.55402C191.539 5.12936 191.198 4.40906 191.198 3.66262V3.37026C191.198 3.35392 191.198 3.33596 191.198 3.31962V3.31472C191.195 3.02562 191.162 2.73652 191.079 2.46049C190.874 1.77612 190.457 1.17669 189.876 0.792857C189.831 0.761823 189.785 0.734057 189.738 0.70629C188.469 -0.0434099 186.481 -0.0793432 183.48 0.595223C181.38 1.06726 178.769 1.89372 175.718 3.05339C173.767 3.79492 171.898 4.57239 170.318 5.25676V8.76679C171.976 8.04322 173.997 7.19552 176.115 6.39029C179.167 5.23062 181.777 4.40416 183.877 3.93212C184.263 3.84556 184.633 3.77206 184.986 3.70836C185.719 3.57279 186.294 3.50582 186.742 3.48296C188.217 3.38006 189.326 3.56626 190.137 4.04646C190.142 4.04972 190.145 4.05299 190.151 4.05462C190.192 4.07912 190.231 4.10362 190.27 4.13139C190.86 4.53482 191.19 5.22246 191.2 5.93949V5.94276C191.2 5.95256 191.202 5.96072 191.202 5.97052V6.27432C191.206 6.65162 191.278 7.05016 191.407 7.40459C191.627 8.01219 192.016 8.54302 192.542 8.89419C192.591 8.92522 192.639 8.95789 192.69 8.98729C193.958 9.73699 195.946 9.77292 198.947 9.09999C201.048 8.62796 203.044 7.80149 206.094 6.64182C207.405 6.14366 208.984 5.51156 210.359 4.94152L212.002 0.70629C210.209 1.50662 208.318 2.30859 205.695 3.30492L205.694 3.29512Z" fill="white"/>
<path d="M205.695 9.65862C202.645 10.8183 200.647 11.6448 198.547 12.1168C198.161 12.2034 197.793 12.2785 197.44 12.3406C196.707 12.4778 196.132 12.5431 195.684 12.566C194.209 12.6689 193.1 12.4827 192.289 12.0041C192.284 12.0008 192.28 11.9992 192.275 11.9959C192.232 11.9714 192.192 11.9437 192.151 11.9159C191.539 11.4912 191.2 10.7709 191.2 10.0245V9.73212C191.2 9.71415 191.2 9.69782 191.2 9.67985V9.67495C191.197 9.38585 191.164 9.09675 191.081 8.82072C190.876 8.13635 190.459 7.53692 189.878 7.15309C189.832 7.12205 189.787 7.09265 189.739 7.06652C188.471 6.31682 186.483 6.28089 183.482 6.95545C181.381 7.42749 178.769 8.25395 175.72 9.41362C173.769 10.1552 171.9 10.9326 170.32 11.6154V15.1254C171.978 14.4018 173.998 13.5541 176.117 12.7489C179.168 11.5892 181.779 10.7628 183.879 10.2907C184.265 10.2042 184.635 10.1307 184.988 10.0653C185.721 9.92975 186.295 9.86279 186.743 9.83992C188.218 9.73702 189.327 9.92322 190.138 10.4034C190.143 10.4067 190.146 10.41 190.153 10.4116C190.194 10.4361 190.233 10.4606 190.272 10.4884C190.861 10.8934 191.192 11.5811 191.202 12.2965C191.202 12.3079 191.203 12.3161 191.203 12.3259V12.6297C191.206 13.007 191.28 13.4055 191.408 13.7599C191.628 14.3692 192.017 14.8984 192.543 15.2495C192.592 15.2806 192.641 15.3132 192.691 15.3426C193.96 16.0923 195.948 16.1266 198.949 15.4553C201.05 14.9833 203.046 14.1568 206.097 12.9955C206.519 12.8355 206.97 12.6607 207.433 12.4778L209.04 8.33725C208.048 8.74722 206.959 9.18169 205.698 9.66025L205.695 9.65862Z" fill="white"/>
</g>
<defs>
<clipPath id="clip0_473_201">
<rect width="212" height="49" fill="white" transform="translate(0 0.111816)"/>
</clipPath>
</defs>
</svg>
