<svg width="255" height="59" viewBox="0 0 255 59" fill="none" xmlns="http://www.w3.org/2000/svg">
<g id="saved_Ving_logo_primary_orange_RGB 1" clip-path="url(#clip0_130_195)">
<g id="Group">
<g id="Group_2">
<path id="Vector" d="M4.47145 0.881104L11.6967 19.7454L26.3939 58.117H22.0086L15.1399 40.2557L0 0.881104H4.47145ZM55.6865 0.881104L33.4996 58.119H30.08L8.15555 0.881104H12.7151L27.7982 40.771L42.9714 0.881104H47.4448L29.9056 46.9345L31.6586 51.6899L51.1269 0.881104H55.6865Z" fill="#FE8C00"/>
<path id="Vector_2" d="M61.3879 0.881104H65.5969V58.119H61.3879V0.881104ZM69.0166 0.881104H73.2256V58.119H69.0166V0.881104Z" fill="#FE8C00"/>
</g>
<g id="Group_3">
<path id="Vector_3" d="M83.7511 0.87915H86.9083L126.372 58.117H121.462L95.5908 20.3413V58.117H91.3818V13.7372L87.9621 8.89332V58.117H83.7531V0.87915H83.7511ZM91.1173 0.87915H96.0275L121.985 38.8319V0.87915H126.194V45.3475L129.613 50.1913V0.87915H133.822V58.117H130.577L91.1173 0.87915Z" fill="#FE8C00"/>
<path id="Vector_4" d="M141.457 29.5C141.457 12.7676 153.733 0 170.659 0C181.095 0 191.268 5.54797 195.739 15.8494L191.793 17.4345C188.108 8.62777 179.953 3.96087 170.657 4.04937C155.31 4.22637 145.752 15.3203 145.752 29.498C145.752 43.6757 155.837 54.9467 170.92 54.9467C183.897 54.9467 191.44 46.7575 192.668 38.1278H189.248C187.932 45.1724 181.53 51.5129 170.92 51.6879C157.94 51.8649 149.172 42.3541 149.172 29.498C149.172 16.6419 157.94 7.30813 170.657 7.30813C178.813 7.30813 185.566 11.5345 188.723 18.9311L184.777 20.6028C182.671 14.9663 177.411 11.3575 170.657 11.3575C160.046 11.3575 153.469 19.4582 153.469 29.498C153.469 39.5379 159.695 47.6386 170.922 47.6386C178.989 47.6386 183.725 43.3237 184.865 38.1278H170.922V34.0764H197.23V35.221C197.23 46.7555 186.882 58.8191 170.922 58.9961C153.733 59.1731 141.457 46.4035 141.457 29.4961V29.5ZM170.922 26.7703H197.23V30.8216H170.922V26.7703Z" fill="#FE8C00"/>
</g>
</g>
<g id="Group_4">
<path id="Vector_5" d="M247.414 3.833C243.746 5.22933 241.343 6.22643 238.816 6.79283C238.352 6.89706 237.909 6.98753 237.484 7.06226C236.603 7.22746 235.912 7.30613 235.373 7.33563C233.599 7.45953 232.265 7.23533 231.291 6.6591C231.285 6.65516 231.28 6.6532 231.274 6.64926C231.223 6.6178 231.172 6.58633 231.125 6.5529C230.388 6.04156 229.979 5.17426 229.979 4.2755V3.92346C229.979 3.9038 229.979 3.88216 229.979 3.8625V3.8566C229.975 3.5085 229.936 3.1604 229.836 2.82803C229.589 2.004 229.088 1.28223 228.389 0.820063C228.334 0.782696 228.279 0.749263 228.222 0.71583C226.696 -0.18687 224.305 -0.230137 220.695 0.582096C218.169 1.15046 215.029 2.1456 211.359 3.54193C209.012 4.4348 206.764 5.37093 204.864 6.19496V10.4213C206.858 9.5501 209.289 8.5294 211.837 7.55983C215.507 6.1635 218.647 5.16836 221.173 4.6C221.637 4.49576 222.082 4.40726 222.507 4.33056C223.388 4.16733 224.08 4.0867 224.618 4.05916C226.393 3.93526 227.727 4.15946 228.702 4.73766C228.708 4.7416 228.712 4.74553 228.72 4.7475C228.769 4.777 228.816 4.8065 228.863 4.83993C229.572 5.3257 229.969 6.15366 229.981 7.01703V7.02096C229.981 7.03276 229.983 7.0426 229.983 7.0544V7.4202C229.989 7.8745 230.075 8.35436 230.23 8.78113C230.494 9.51273 230.962 10.1519 231.595 10.5747C231.654 10.6121 231.712 10.6514 231.773 10.6868C233.299 11.5895 235.69 11.6328 239.3 10.8225C241.827 10.2542 244.228 9.25903 247.896 7.8627C249.473 7.26286 251.373 6.50176 253.026 5.8154L255.002 0.71583C252.846 1.6795 250.572 2.64513 247.416 3.8448L247.414 3.833Z" fill="#FE8C00"/>
<path id="Vector_6" d="M247.416 11.4951C243.748 12.8915 241.345 13.8866 238.818 14.455C238.354 14.5592 237.911 14.6497 237.486 14.7244C236.605 14.8896 235.914 14.9683 235.375 14.9958C233.601 15.1197 232.267 14.8955 231.291 14.3193C231.285 14.3153 231.28 14.3134 231.274 14.3094C231.223 14.2799 231.174 14.2465 231.125 14.2131C230.388 13.7017 229.981 12.8344 229.981 11.9357V11.5836C229.981 11.562 229.981 11.5423 229.981 11.5207V11.5148C229.977 11.1667 229.938 10.8186 229.838 10.4862C229.591 9.6622 229.09 8.94043 228.391 8.47827C228.336 8.4409 228.281 8.4055 228.224 8.37403C226.698 7.47133 224.307 7.42807 220.697 8.2403C218.171 8.80867 215.029 9.8038 211.361 11.2001C209.014 12.093 206.766 13.0291 204.866 13.8512V18.0776C206.86 17.2063 209.291 16.1856 211.839 15.2161C215.509 13.8197 218.649 12.8246 221.175 12.2562C221.639 12.152 222.084 12.0635 222.509 11.9848C223.39 11.8216 224.082 11.741 224.62 11.7134C226.395 11.5895 227.729 11.8137 228.704 12.3919C228.71 12.3959 228.714 12.3998 228.722 12.4018C228.771 12.4313 228.818 12.4608 228.865 12.4942C229.574 12.9819 229.971 13.8099 229.983 14.6713C229.983 14.6851 229.985 14.6949 229.985 14.7067V15.0725C229.989 15.5268 230.077 16.0067 230.232 16.4334C230.496 17.167 230.964 17.8042 231.597 18.227C231.656 18.2644 231.714 18.3037 231.775 18.3391C233.301 19.2418 235.692 19.2831 239.302 18.4748C241.829 17.9065 244.23 16.9113 247.9 15.513C248.407 15.3203 248.95 15.1099 249.506 14.8896L251.439 9.9041C250.247 10.3977 248.936 10.9209 247.42 11.4971L247.416 11.4951Z" fill="#FE8C00"/>
</g>
</g>
<defs>
<clipPath id="clip0_130_195">
<rect width="255" height="59" fill="white"/>
</clipPath>
</defs>
</svg>
