<svg width="212" height="50" viewBox="0 0 212 50" fill="none" xmlns="http://www.w3.org/2000/svg">
<g id="saved_Ving_logo_primary_orange_RGB 1" clip-path="url(#clip0_39_511)">
<g id="Group">
<g id="Group_2">
<path id="Vector" d="M3.71744 0.84375L9.72429 16.5107L21.9432 48.3786H18.2974L12.5869 33.5447L0 0.84375H3.71744ZM46.2962 0.84375L27.8507 48.3803H25.0077L6.7803 0.84375H10.571L23.1107 33.9726L35.7252 0.84375H39.4443L24.8627 39.0915L26.3201 43.0409L42.5055 0.84375H46.2962Z" fill="white"/>
<path id="Vector_2" d="M51.0361 0.84375H54.5354V48.3803H51.0361V0.84375ZM57.3784 0.84375H60.8777V48.3803H57.3784V0.84375Z" fill="white"/>
</g>
<g id="Group_3">
<path id="Vector_3" d="M69.6284 0.841797H72.2533L105.062 48.3783H100.98L79.4716 17.0053V48.3783H75.9723V11.5205L73.1293 7.49763V48.3783H69.63V0.841797H69.6284ZM75.7525 0.841797H79.8347L101.415 32.3619V0.841797H104.914V37.7731L107.757 41.796V0.841797H111.256V48.3783H108.558L75.7525 0.841797Z" fill="white"/>
<path id="Vector_4" d="M117.604 24.6118C117.604 10.7154 127.81 0.111816 141.882 0.111816C150.557 0.111816 159.015 4.71945 162.732 13.2748L159.451 14.5913C156.388 7.27725 149.608 3.40135 141.88 3.47485C129.121 3.62185 121.174 12.8355 121.174 24.6102C121.174 36.3849 129.559 45.7455 142.098 45.7455C152.887 45.7455 159.158 38.9443 160.179 31.7772H157.336C156.242 37.6278 150.919 42.8937 142.098 43.0391C131.307 43.1861 124.017 35.2873 124.017 24.6102C124.017 13.9331 131.307 6.18128 141.88 6.18128C148.66 6.18128 154.275 9.69132 156.9 15.8343L153.619 17.2226C151.868 12.5415 147.494 9.54432 141.88 9.54432C133.058 9.54432 127.59 16.272 127.59 24.6102C127.59 32.9483 132.766 39.676 142.1 39.676C148.807 39.676 152.744 36.0925 153.692 31.7772H142.1V28.4126H163.971V29.3632C163.971 38.9427 155.369 48.9615 142.1 49.1086C127.81 49.2556 117.604 38.6503 117.604 24.6085V24.6118ZM142.1 22.3447H163.971V25.7094H142.1V22.3447Z" fill="white"/>
</g>
</g>
<g id="Group_4">
<path id="Vector_5" d="M205.693 3.29512C202.644 4.45479 200.646 5.28289 198.545 5.75329C198.159 5.83986 197.791 5.91499 197.438 5.97706C196.705 6.11426 196.13 6.17959 195.683 6.20409C194.207 6.30699 193.098 6.12079 192.289 5.64222C192.284 5.63896 192.279 5.63732 192.275 5.63406C192.232 5.60792 192.19 5.58179 192.151 5.55402C191.539 5.12936 191.198 4.40906 191.198 3.66262V3.37026C191.198 3.35392 191.198 3.33596 191.198 3.31962V3.31472C191.195 3.02562 191.162 2.73652 191.079 2.46049C190.874 1.77612 190.457 1.17669 189.876 0.792857C189.83 0.761823 189.785 0.734057 189.738 0.70629C188.469 -0.0434099 186.481 -0.0793432 183.48 0.595223C181.38 1.06726 178.769 1.89372 175.718 3.05339C173.767 3.79492 171.898 4.57239 170.318 5.25676V8.76679C171.976 8.04322 173.997 7.19552 176.115 6.39029C179.167 5.23062 181.777 4.40416 183.877 3.93212C184.263 3.84556 184.633 3.77206 184.986 3.70836C185.719 3.57279 186.294 3.50582 186.742 3.48296C188.217 3.38006 189.326 3.56626 190.137 4.04646C190.141 4.04972 190.145 4.05299 190.151 4.05462C190.192 4.07912 190.231 4.10362 190.27 4.13139C190.86 4.53482 191.19 5.22246 191.2 5.93949V5.94276C191.2 5.95256 191.201 5.96072 191.201 5.97052V6.27432C191.206 6.65162 191.278 7.05016 191.407 7.40459C191.626 8.01219 192.016 8.54302 192.542 8.89419C192.59 8.92522 192.639 8.95789 192.69 8.98729C193.958 9.73699 195.946 9.77292 198.947 9.09999C201.048 8.62796 203.044 7.80149 206.094 6.64182C207.405 6.14366 208.984 5.51156 210.359 4.94152L212.002 0.70629C210.209 1.50662 208.318 2.30859 205.695 3.30492L205.693 3.29512Z" fill="white"/>
<path id="Vector_6" d="M205.695 9.65874C202.645 10.8184 200.647 11.6449 198.547 12.1169C198.161 12.2035 197.793 12.2786 197.44 12.3407C196.707 12.4779 196.132 12.5432 195.684 12.5661C194.209 12.669 193.1 12.4828 192.289 12.0042C192.284 12.0009 192.28 11.9993 192.275 11.996C192.232 11.9715 192.192 11.9438 192.151 11.916C191.539 11.4913 191.2 10.771 191.2 10.0246V9.73224C191.2 9.71428 191.2 9.69794 191.2 9.67998V9.67507C191.197 9.38597 191.164 9.09687 191.081 8.82084C190.876 8.13647 190.459 7.53704 189.878 7.15321C189.832 7.12217 189.787 7.09278 189.739 7.06664C188.471 6.31694 186.483 6.28101 183.482 6.95558C181.381 7.42761 178.769 8.25408 175.72 9.41374C173.769 10.1553 171.9 10.9327 170.32 11.6155V15.1255C171.978 14.4019 173.998 13.5542 176.117 12.749C179.168 11.5893 181.779 10.7629 183.879 10.2908C184.265 10.2043 184.635 10.1308 184.988 10.0654C185.721 9.92987 186.295 9.86291 186.743 9.84004C188.218 9.73714 189.327 9.92334 190.138 10.4035C190.143 10.4068 190.146 10.4101 190.153 10.4117C190.194 10.4362 190.233 10.4607 190.272 10.4885C190.861 10.8935 191.192 11.5812 191.202 12.2966C191.202 12.308 191.203 12.3162 191.203 12.326V12.6298C191.206 13.0071 191.28 13.4056 191.408 13.76C191.628 14.3693 192.017 14.8985 192.543 15.2496C192.592 15.2807 192.641 15.3133 192.691 15.3427C193.96 16.0924 195.948 16.1267 198.949 15.4554C201.05 14.9834 203.046 14.1569 206.097 12.9956C206.519 12.8356 206.97 12.6608 207.433 12.4779L209.04 8.33737C208.048 8.74734 206.959 9.18181 205.698 9.66037L205.695 9.65874Z" fill="white"/>
</g>
</g>
<defs>
<clipPath id="clip0_39_511">
<rect width="212" height="49" fill="white" transform="translate(0 0.111816)"/>
</clipPath>
</defs>
</svg>
